<svg width="260" height="316" viewBox="0 0 260 316" fill="none" xmlns="http://www.w3.org/2000/svg">
<g filter="url(#filter0_d_127_7843)">
<rect x="18.2122" y="7" width="223.576" height="278.869" rx="30.0505" fill="#161615"/>
</g>
<mask id="mask0_127_7843" style="mask-type:alpha" maskUnits="userSpaceOnUse" x="18" y="7" width="224" height="279">
<rect x="18.2122" y="7" width="223.576" height="278.869" rx="30.0505" fill="#161615"/>
</mask>
<g mask="url(#mask0_127_7843)">
<path d="M203.042 157.122C198.875 151.334 197.46 145.491 198.927 140.018C200.221 135.312 203.329 131.311 207.569 128.893C211.809 126.475 216.834 125.837 221.544 127.119C226.78 128.522 230.851 131.155 233.232 136.074C235.253 135.812 237.304 135.924 239.284 136.406C243.142 137.448 246.429 139.978 248.423 143.441C250.418 146.904 250.957 151.017 249.923 154.877C248.052 161.858 240.818 166.652 233.33 166.041C233.111 167.822 232.335 169.49 231.113 170.805C232.398 171.786 233.438 173.053 234.149 174.506C234.861 175.958 235.224 177.557 235.211 179.174L238.258 179.99C238.763 179.449 239.406 179.056 240.118 178.852C240.83 178.648 241.584 178.641 242.299 178.833L246.786 180.035C247.693 180.28 248.487 180.831 249.036 181.594C249.584 182.357 249.852 183.285 249.796 184.223L254.47 185.476C255.516 185.756 256.407 186.44 256.949 187.378C257.49 188.316 257.637 189.431 257.357 190.477L256.163 194.934C255.882 195.98 255.198 196.872 254.26 197.413C253.322 197.955 252.208 198.101 251.162 197.821L246.517 196.577C246.114 197.45 245.415 198.153 244.543 198.562C243.672 198.97 242.685 199.058 241.755 198.809L237.298 197.615C236.37 197.363 235.56 196.791 235.012 196.001C234.464 195.21 234.213 194.251 234.303 193.293L201.585 184.527C198.463 183.722 195.715 181.861 193.808 179.26C191.902 176.659 190.954 173.479 191.126 170.259C191.298 167.039 192.579 163.977 194.752 161.594C196.924 159.211 199.855 157.654 203.046 157.186L203.042 157.122ZM252.2 193.946L253.421 189.39L248.835 188.162L247.641 192.619L252.2 193.946ZM238.339 193.73L242.796 194.924C243.451 192.479 245.121 186.247 245.702 184.078L241.245 182.883L238.339 193.73ZM202.649 180.595L235.308 189.346L236.774 183.873L232.445 182.713C231.922 182.573 231.476 182.231 231.205 181.762C230.935 181.293 230.861 180.736 231.001 180.213C231.29 178.788 231.063 177.307 230.361 176.035C229.658 174.762 228.526 173.781 227.166 173.267C225.677 173.699 224.097 173.711 222.602 173.301C222.079 173.161 221.633 172.819 221.362 172.35C221.091 171.881 221.018 171.324 221.158 170.801C221.298 170.278 221.641 169.832 222.109 169.561C222.578 169.29 223.136 169.217 223.659 169.357C224.807 169.665 226.03 169.504 227.059 168.909C228.089 168.315 228.84 167.336 229.147 166.188C229.455 165.04 229.294 163.817 228.7 162.787C228.105 161.758 227.127 161.007 225.979 160.699C225.456 160.559 225.01 160.217 224.739 159.748C224.468 159.279 224.395 158.722 224.535 158.199C224.675 157.676 225.017 157.23 225.486 156.959C225.955 156.688 226.512 156.615 227.035 156.755C228.326 157.105 229.517 157.753 230.513 158.645C231.508 159.538 232.282 160.651 232.771 161.896C238.504 162.861 244.49 159.297 245.971 153.808C246.726 150.992 246.332 147.992 244.877 145.466C243.422 142.94 241.024 141.095 238.21 140.335C237.043 140.058 235.841 139.957 234.644 140.035C235.056 141.629 235.36 143.25 235.553 144.886C235.584 145.403 235.419 145.912 235.089 146.311C234.76 146.71 234.291 146.969 233.777 147.036C233.264 147.102 232.745 146.971 232.324 146.67C231.904 146.368 231.614 145.918 231.513 145.41C230.399 136.71 227.458 132.931 220.457 131.055C218.644 130.552 216.749 130.413 214.881 130.644C213.013 130.876 211.21 131.474 209.574 132.405C207.938 133.335 206.502 134.58 205.348 136.067C204.195 137.554 203.346 139.254 202.851 141.07C201.173 147.331 204.859 153.297 208.421 157.358C210.524 157.852 212.484 158.826 214.148 160.203C214.536 160.557 214.773 161.047 214.809 161.571C214.846 162.095 214.679 162.612 214.343 163.016C214.008 163.42 213.529 163.68 213.008 163.74C212.486 163.801 211.961 163.658 211.542 163.341C210.403 162.377 209.062 161.682 207.617 161.307C206.173 160.933 204.662 160.889 203.198 161.178C201.734 161.467 200.354 162.083 199.161 162.979C197.968 163.875 196.991 165.028 196.305 166.353C195.618 167.678 195.239 169.141 195.196 170.632C195.152 172.124 195.445 173.606 196.053 174.969C196.661 176.332 197.569 177.54 198.708 178.504C199.847 179.468 201.188 180.163 202.633 180.538" fill="#303030"/>
<path d="M241.616 199.29C242.588 199.553 243.621 199.487 244.552 199.102C245.483 198.716 246.26 198.034 246.763 197.16L251.012 198.299C252.188 198.614 253.44 198.45 254.494 197.843C255.548 197.236 256.319 196.235 256.636 195.061L257.838 190.574C258.152 189.402 257.989 188.152 257.383 187.1C256.777 186.048 255.779 185.28 254.607 184.963L250.318 183.814C250.285 182.831 249.939 181.885 249.33 181.113C248.721 180.341 247.881 179.785 246.933 179.525L242.466 178.328C241.712 178.125 240.919 178.118 240.162 178.307C239.405 178.496 238.709 178.875 238.139 179.409L235.753 178.77C235.71 177.226 235.339 175.709 234.666 174.318C233.993 172.928 233.032 171.697 231.847 170.706C232.834 169.509 233.492 168.075 233.755 166.545C241.402 166.956 248.51 162.044 250.414 154.977C251.458 150.996 250.887 146.763 248.824 143.202C246.762 139.64 243.375 137.038 239.402 135.962C237.483 135.496 235.496 135.368 233.533 135.584C231.244 131.071 227.458 128.238 221.67 126.687C216.835 125.381 211.68 126.042 207.332 128.528C202.984 131.013 199.797 135.12 198.47 139.949C197.032 145.313 198.316 151.131 202.208 156.803C199.582 157.342 197.157 158.599 195.203 160.434C193.249 162.268 191.841 164.609 191.137 167.195C190.635 169.037 190.507 170.961 190.761 172.853C191.014 174.745 191.644 176.568 192.614 178.212C194.548 181.544 197.723 183.975 201.444 184.975L233.757 193.633C233.757 194.643 234.09 195.625 234.704 196.426C235.319 197.227 236.181 197.803 237.157 198.063L241.624 199.26L241.616 199.29ZM246.229 195.918L246.036 196.321C245.689 197.086 245.081 197.702 244.321 198.059C243.561 198.417 242.699 198.493 241.888 198.274L237.421 197.077C236.606 196.858 235.896 196.357 235.416 195.664C234.936 194.97 234.718 194.129 234.8 193.289L234.84 192.866L201.708 183.989C199.983 183.531 198.366 182.738 196.948 181.654C195.53 180.571 194.34 179.218 193.445 177.674C192.547 176.144 191.964 174.451 191.729 172.693C191.494 170.935 191.612 169.148 192.077 167.437C192.77 164.905 194.187 162.632 196.155 160.894C198.122 159.157 200.554 158.033 203.152 157.658L203.978 157.531L203.492 156.862C199.434 151.22 198.092 145.459 199.503 140.194C200.752 135.629 203.757 131.743 207.862 129.387C211.967 127.031 216.837 126.397 221.409 127.622C227.03 129.128 230.643 131.892 232.773 136.289L232.928 136.616L233.288 136.575C235.243 136.334 237.225 136.443 239.142 136.896C242.87 137.901 246.048 140.345 247.975 143.692C249.902 147.038 250.422 151.013 249.42 154.742C247.61 161.497 240.69 166.142 233.363 165.521L232.866 165.483L232.811 165.965C232.613 167.643 231.885 169.214 230.732 170.449L230.347 170.864L230.794 171.205C232.026 172.134 233.023 173.338 233.705 174.721C234.388 176.105 234.738 177.628 234.726 179.171L234.714 179.569L238.451 180.571L238.661 180.341C239.103 179.868 239.666 179.524 240.289 179.346C240.912 179.169 241.571 179.164 242.197 179.334L246.654 180.528C247.447 180.743 248.142 181.225 248.621 181.892C249.101 182.56 249.336 183.372 249.286 184.193L249.257 184.618L254.335 185.979C255.245 186.225 256.02 186.823 256.491 187.64C256.961 188.458 257.088 189.428 256.844 190.339L255.65 194.796C255.403 195.709 254.803 196.487 253.983 196.959C253.164 197.43 252.19 197.558 251.277 197.313L246.218 195.958L246.229 195.918ZM243.181 195.461L246.351 183.628L240.908 182.17L237.738 194.002L243.181 195.461ZM245.101 184.35L242.459 194.21L238.978 193.278L241.62 183.417L245.101 184.35ZM252.554 194.517L254.013 189.073L248.442 187.581L246.983 193.024L252.554 194.517ZM252.765 189.785L251.833 193.266L248.224 192.299L249.154 188.828L252.765 189.785ZM235.662 189.916L237.403 183.418L232.581 182.126C232.386 182.076 232.203 181.987 232.044 181.864C231.884 181.742 231.751 181.588 231.652 181.412C231.552 181.24 231.486 181.05 231.459 180.852C231.432 180.654 231.445 180.453 231.496 180.261C231.813 178.715 231.57 177.106 230.81 175.723C230.049 174.34 228.822 173.273 227.346 172.712L227.179 172.668L227.017 172.719C225.633 173.111 224.17 173.124 222.779 172.757C222.586 172.707 222.404 172.618 222.245 172.497C222.086 172.375 221.952 172.224 221.852 172.05C221.752 171.877 221.687 171.686 221.662 171.487C221.637 171.289 221.651 171.087 221.704 170.894C221.809 170.504 222.063 170.17 222.413 169.967C222.762 169.763 223.178 169.707 223.569 169.809C224.846 170.148 226.206 169.968 227.351 169.309C228.496 168.649 229.333 167.564 229.681 166.289C230.023 165.011 229.845 163.649 229.186 162.502C228.527 161.355 227.44 160.515 226.163 160.168C225.968 160.118 225.785 160.029 225.626 159.906C225.466 159.783 225.333 159.629 225.234 159.454C225.134 159.282 225.068 159.091 225.041 158.894C225.014 158.696 225.027 158.495 225.078 158.302C225.183 157.91 225.44 157.575 225.791 157.372C226.143 157.169 226.561 157.114 226.953 157.219C228.164 157.556 229.28 158.168 230.216 159.007C231.151 159.846 231.881 160.89 232.347 162.057L232.454 162.329L232.73 162.403C238.799 163.416 244.969 159.637 246.496 153.98C247.289 151.032 246.878 147.891 245.356 145.245C243.833 142.6 241.323 140.667 238.376 139.872C237.162 139.584 235.912 139.477 234.667 139.555L234.035 139.586L234.198 140.201C234.601 141.774 234.9 143.372 235.093 144.985C235.119 145.183 235.106 145.385 235.054 145.579C235.003 145.772 234.913 145.954 234.791 146.112C234.669 146.271 234.517 146.404 234.343 146.504C234.169 146.604 233.978 146.668 233.779 146.694C233.376 146.744 232.969 146.635 232.645 146.39C232.487 146.268 232.355 146.116 232.257 145.942C232.158 145.769 232.095 145.578 232.07 145.38C230.909 136.423 227.918 132.557 220.634 130.595C216.842 129.565 212.797 130.079 209.384 132.025C205.971 133.97 203.467 137.189 202.422 140.976C200.67 147.514 204.543 153.688 208.1 157.727L208.208 157.84L208.365 157.882C210.394 158.356 212.285 159.296 213.886 160.63C214.195 160.891 214.391 161.261 214.433 161.664C214.452 161.863 214.431 162.064 214.371 162.255C214.31 162.446 214.212 162.623 214.082 162.775C213.957 162.932 213.8 163.062 213.622 163.156C213.444 163.25 213.249 163.307 213.048 163.322C212.849 163.341 212.648 163.32 212.457 163.26C212.266 163.2 212.089 163.102 211.937 162.972C210.574 161.843 208.948 161.076 207.21 160.744C205.472 160.411 203.678 160.523 201.995 161.069C200.33 161.586 198.824 162.516 197.615 163.772C196.407 165.028 195.535 166.569 195.082 168.252C194.383 170.932 194.772 173.779 196.164 176.173C197.555 178.567 199.837 180.314 202.511 181.033L235.662 189.916ZM236.153 184.14L234.94 188.666L202.775 180.047C200.348 179.408 198.273 177.833 197.005 175.667C195.737 173.501 195.38 170.92 196.011 168.491C196.421 166.975 197.208 165.587 198.298 164.456C199.388 163.326 200.746 162.489 202.246 162.024C203.766 161.53 205.386 161.427 206.955 161.726C208.525 162.025 209.994 162.715 211.226 163.732C211.745 164.164 212.415 164.372 213.087 164.311C213.76 164.249 214.38 163.923 214.812 163.404C215.244 162.885 215.452 162.215 215.391 161.543C215.329 160.87 215.003 160.25 214.484 159.818C212.804 158.417 210.826 157.421 208.701 156.905C205.336 153.055 201.774 147.26 203.391 141.225C204.362 137.696 206.693 134.695 209.873 132.883C213.054 131.07 216.823 130.593 220.355 131.556C227.159 133.379 229.955 137.024 231.038 145.484C231.068 145.827 231.166 146.16 231.328 146.464C231.49 146.768 231.712 147.036 231.98 147.253C232.248 147.469 232.557 147.628 232.888 147.722C233.22 147.815 233.566 147.841 233.908 147.797C234.249 147.753 234.578 147.64 234.875 147.465C235.172 147.291 235.43 147.058 235.635 146.781C235.839 146.504 235.986 146.188 236.065 145.853C236.144 145.518 236.155 145.17 236.096 144.831C235.917 143.386 235.659 141.951 235.324 140.534C236.257 140.513 237.19 140.614 238.097 140.833C240.781 141.558 243.067 143.318 244.455 145.726C245.842 148.135 246.218 150.996 245.498 153.681C244.135 158.769 238.632 162.188 233.165 161.41C232.614 160.152 231.789 159.033 230.749 158.136C229.709 157.239 228.481 156.587 227.156 156.227C226.502 156.052 225.805 156.144 225.219 156.482C224.633 156.821 224.205 157.378 224.03 158.032C223.855 158.686 223.947 159.382 224.285 159.969C224.623 160.555 225.181 160.982 225.835 161.158C226.852 161.433 227.719 162.101 228.245 163.014C228.771 163.928 228.913 165.013 228.64 166.031C228.365 167.046 227.699 167.91 226.788 168.435C225.877 168.96 224.795 169.101 223.779 168.829C223.125 168.654 222.429 168.746 221.842 169.084C221.256 169.423 220.829 169.98 220.653 170.634C220.478 171.288 220.57 171.984 220.908 172.57C221.247 173.157 221.804 173.584 222.458 173.759C223.983 174.171 225.589 174.175 227.116 173.771C228.317 174.261 229.311 175.154 229.926 176.297C230.542 177.439 230.741 178.76 230.489 180.033C230.402 180.356 230.378 180.693 230.421 181.025C230.464 181.357 230.571 181.677 230.738 181.967C230.905 182.258 231.127 182.512 231.393 182.716C231.658 182.92 231.961 183.07 232.284 183.156L236.153 184.14Z" fill="#161615"/>
<path d="M12.3482 149.361C11.0454 146.55 10.7936 143.365 11.6385 140.384C11.9273 139.306 12.3661 137.087 13.6945 136.852C14.3833 136.8 15.0754 136.812 15.762 136.887C16.9872 136.917 18.2047 136.951 19.4189 136.997C27.6925 137.284 35.9626 137.69 44.2292 138.213C48.3518 138.474 52.4801 138.762 56.599 139.158C59.2156 139.321 61.8166 139.677 64.3805 140.225C64.8968 140.356 65.6453 140.518 65.9585 140.972C66.9038 142.361 64.6131 144.564 63.7335 145.328C61.4957 147.414 58.6695 148.759 55.6396 149.182C52.6622 149.539 49.3767 148.6 46.489 149.592C43.1699 150.74 42.1142 154.923 38.6642 156.075C38.098 156.276 37.4935 156.346 36.8964 156.28C36.2992 156.213 35.725 156.011 35.2173 155.69C33.6932 154.717 33.0254 152.922 31.6611 151.765C28.767 149.341 24.7857 149.715 21.2681 150.006C19.3203 150.178 17.3902 150.381 15.4438 150.379C14.4706 150.378 13.0205 150.437 12.3787 149.538C11.8288 148.781 12.9739 147.874 13.5161 148.636C13.9664 149.256 16.3094 148.917 16.8877 148.89C18.7247 148.792 20.5482 148.599 22.3829 148.461C24.9882 148.257 27.7282 148.18 30.1882 149.196C31.2749 149.647 32.2648 150.302 33.1043 151.126C34.1844 152.181 34.8398 153.902 36.2317 154.593C39.1282 156.063 41.6258 151.683 43.2228 150.034C47.2062 145.922 53.5336 148.903 58.3745 146.968C59.7918 146.421 61.1155 145.657 62.2979 144.703C63.1693 143.885 63.9421 142.968 64.6005 141.971C65.0838 141.354 64.3465 141.974 64.8929 141.945C64.7467 141.958 64.9091 141.885 64.8146 141.898C64.7201 141.912 64.2749 141.708 64.1053 141.663C61.8624 141.17 59.5844 140.852 57.2921 140.714C53.6396 140.345 49.9733 140.076 46.3125 139.835C38.5357 139.309 30.7352 138.92 22.9471 138.605C20.2239 138.498 17.5039 138.379 14.781 138.344C14.5424 138.338 13.9859 138.332 13.9904 138.34C13.9948 138.347 13.822 138.314 13.7561 138.342C13.6903 138.37 13.7561 138.342 13.7561 138.342C14.2782 138.041 13.812 138.545 13.7492 138.755C13.1585 140.693 12.4789 142.406 12.5882 144.493C12.6622 145.996 13.0328 147.469 13.6786 148.829C14.0947 149.673 12.7513 150.255 12.3352 149.41" fill="#303030"/>
<path d="M-2.09397 162.132C-1.37825 159.333 0.263783 156.859 2.5648 155.112C3.5478 154.35 5.67524 152.538 7.01138 153.292C8.54604 154.177 9.94449 155.837 11.2066 157.012C17.4292 162.612 23.5712 168.304 29.6326 174.086C32.6497 176.971 35.6558 179.873 38.5876 182.858C40.4716 184.624 42.2038 186.545 43.7661 188.601C44.1092 189.089 44.5716 189.712 44.3302 190.323C43.7938 191.84 40.7747 191.966 39.5366 191.985C36.6839 192.05 33.8705 191.311 31.4171 189.854C28.7684 188.21 26.8031 185.178 23.8193 184.106C22.0538 183.477 20.3837 184.042 18.6256 184.331C17.2326 184.6 15.7995 184.585 14.4126 184.286C11.4434 183.522 11.1136 181.072 11.2711 178.401C11.5626 173.728 8.17987 170.972 4.69506 168.5C2.9698 167.285 1.18754 166.113 -0.416385 164.736C-1.199 164.072 -2.23422 163.236 -2.15129 162.103C-2.08838 161.166 -0.64697 161.358 -0.709876 162.295C-0.772782 163.232 1.67762 164.551 2.17187 164.91C3.71872 166.065 5.30244 167.106 6.836 168.237C9.02599 169.849 11.1998 171.788 12.1538 174.38C12.6332 175.721 12.8192 177.15 12.6992 178.57C12.6136 179.858 12.3882 181.329 13.5052 182.271C15.4698 183.9 18.6546 182.696 20.8372 182.399C26.6761 181.607 29.5901 188.002 34.599 189.727C36.8368 190.482 39.9379 190.995 42.2432 190.094C42.3507 190.032 43.011 189.651 43.011 189.651C43.011 189.651 42.8194 190.099 42.9107 190.098C43.0019 190.096 42.6358 189.622 42.6048 189.568C41.2671 187.764 39.7718 186.082 38.1365 184.542C35.5956 181.914 32.9549 179.344 30.321 176.821C24.6091 171.325 18.7877 165.923 12.9226 160.587C10.9142 158.757 8.90901 156.916 6.85247 155.144C6.6306 154.955 6.3857 154.779 6.17475 154.573C6.12391 154.515 6.06159 154.467 5.9916 154.433C6.35286 154.563 5.99578 154.636 5.63255 154.805C4.08477 155.517 2.71033 156.557 1.60438 157.853C0.498426 159.149 -0.312596 160.67 -0.772486 162.311C-0.99283 163.206 -2.41 163.021 -2.21388 162.119" fill="#303030"/>
<path d="M32.4765 146.227L32.4074 146.267C32.4842 146.222 32.561 146.178 32.6454 146.129C32.7494 146.059 32.8483 145.981 32.9413 145.897C33.0073 145.864 33.0714 145.827 33.1332 145.786L33.2331 145.728C33.3636 145.653 33.1215 145.854 33.2331 145.728C33.3447 145.603 33.4781 145.444 33.5885 145.298C33.6433 145.222 33.6929 145.142 33.737 145.059C33.737 145.059 33.6476 145.223 33.737 145.059L33.8111 144.903L33.9209 144.615L33.9675 144.465C33.9132 144.619 33.9675 144.465 33.9675 144.465L34.0111 144.133L34.0181 143.985C34.0264 143.858 34.0181 143.985 34.0181 143.985L34.0122 143.886C34.0047 143.733 33.9849 143.58 33.953 143.429L33.9193 143.264C33.9592 143.333 33.8483 143.142 33.835 143.119C33.7775 142.952 33.7081 142.791 33.6272 142.634L33.481 142.381L33.3657 142.181C33.2524 142.027 33.2022 141.835 33.2255 141.645C33.2487 141.454 33.3436 141.28 33.4909 141.157C33.6439 141.04 33.8371 140.987 34.0287 141.01C34.2203 141.034 34.3951 141.131 34.5152 141.282C34.8745 141.725 35.1377 142.237 35.2882 142.786C35.4387 143.336 35.4731 143.911 35.3892 144.475C35.3054 145.038 35.1051 145.578 34.8011 146.06C34.4972 146.542 34.0962 146.955 33.6237 147.274C33.4332 147.404 33.233 147.52 33.0248 147.62C32.8477 147.696 32.6475 147.699 32.4681 147.628C32.2888 147.557 32.1451 147.417 32.0687 147.24C31.9922 147.063 31.9892 146.863 32.0604 146.683C32.1316 146.504 32.271 146.36 32.4482 146.284" fill="#303030"/>
<path d="M16.9936 173.951C16.5725 173.948 16.9936 173.951 17.0781 173.902C17.1881 173.892 17.2972 173.873 17.4044 173.846L17.5769 173.808C17.6614 173.76 17.3584 173.873 17.4771 173.866C17.4875 173.855 17.5009 173.847 17.5155 173.844L17.6153 173.786C17.7557 173.736 17.8928 173.678 18.0258 173.611L18.1256 173.553C18.2638 173.473 17.9644 173.646 18.0795 173.58L18.3022 173.451C18.3713 173.411 18.4404 173.371 18.495 173.289C18.5496 173.206 18.3648 173.435 18.495 173.289L18.588 173.184C18.6571 173.144 18.6984 173.038 18.7454 172.96C18.7923 172.881 18.6887 173.074 18.7454 172.96L18.8304 172.788C18.8786 172.68 18.921 172.57 18.9576 172.458C18.9576 172.458 18.9779 172.334 18.9304 172.536C18.9421 172.504 18.9508 172.472 18.9564 172.439L18.9962 172.242C19.0171 172.096 19.0282 171.95 19.0294 171.803L19.0388 171.695C19.0111 171.895 19.0787 171.764 19.0388 171.695C19.0392 171.602 19.0337 171.51 19.0222 171.418C19.0005 171.227 19.053 171.036 19.1689 170.883C19.2847 170.731 19.455 170.628 19.6442 170.598C19.7389 170.585 19.8353 170.591 19.9278 170.615C20.0202 170.639 20.107 170.681 20.1832 170.739C20.2593 170.797 20.3233 170.869 20.3715 170.952C20.4197 171.034 20.4512 171.125 20.4641 171.22C20.5364 171.869 20.4646 172.525 20.2538 173.143C20.0772 173.628 19.7806 174.06 19.3918 174.398C18.8305 174.871 18.1459 175.174 17.4185 175.272C17.2243 175.298 17.0283 175.308 16.8325 175.303C16.7397 175.292 16.65 175.262 16.5688 175.216C16.4876 175.17 16.4164 175.107 16.3596 175.033C16.2402 174.882 16.1855 174.69 16.2075 174.499C16.2295 174.308 16.3265 174.133 16.4771 174.013C16.635 173.898 16.8293 173.844 17.024 173.861" fill="#303030"/>
<path d="M59.8843 139.033C59.9368 139.036 59.9878 139.052 60.0325 139.08C60.0773 139.108 60.1145 139.146 60.1409 139.192C60.1672 139.237 60.1818 139.289 60.1835 139.341C60.1851 139.394 60.1737 139.446 60.1503 139.493C58.5005 142.647 48.1035 162.459 44.5771 168.16C40.7394 174.368 33.8867 184.805 32.2962 186.696C31.5654 187.576 30.5841 188.214 29.4826 188.525C29.0564 188.638 27.9191 187.82 28.0013 187.271C28.0835 186.722 29.4891 185.522 30.8701 182.79C32.2512 180.057 36.0691 173.85 36.0691 173.85L35.5602 170.203L32.1111 177.722L29.2323 175.29C32.0332 169.754 35.1454 164.383 38.5539 159.2C42.8745 153.03 46.9859 150.523 46.9859 150.523L56.9204 139.219C57.0314 139.095 57.169 138.999 57.3229 138.936C57.4768 138.874 57.6429 138.848 57.8085 138.859L59.8843 139.033Z" fill="#303030"/>
<path d="M227.344 228.198L225.976 229.792L224.382 228.424C223.959 228.063 223.41 227.884 222.855 227.927C222.3 227.971 221.785 228.233 221.424 228.656C221.062 229.078 220.884 229.628 220.927 230.182C220.97 230.737 221.232 231.252 221.655 231.613L223.25 232.982L197.176 263.494L191.723 269.882L186.27 276.26C185.913 276.685 185.737 277.233 185.782 277.785C185.826 278.338 186.086 278.851 186.506 279.213C186.716 279.392 186.888 279.61 187.013 279.855C187.138 280.1 187.213 280.368 187.234 280.643C187.255 280.917 187.222 281.193 187.136 281.454C187.05 281.716 186.913 281.958 186.733 282.166C186.376 282.59 186.2 283.138 186.244 283.691C186.288 284.244 186.549 284.757 186.969 285.119L193.347 290.572L196.536 293.288C196.959 293.647 197.506 293.824 198.059 293.782C198.612 293.739 199.126 293.481 199.489 293.062C199.836 292.656 200.324 292.398 200.854 292.339C201.384 292.281 201.917 292.427 202.344 292.747L218.643 311.261C219.24 311.937 219.974 312.478 220.797 312.845C221.62 313.213 222.512 313.4 223.413 313.394C224.314 313.387 225.204 313.187 226.021 312.807C226.839 312.428 227.565 311.877 228.151 311.193L233.516 304.913C234.507 303.747 235.04 302.26 235.017 300.73C234.993 299.2 234.414 297.731 233.388 296.596L225.75 288.16L231.321 281.644C232.395 280.372 232.922 278.725 232.785 277.065C232.649 275.405 231.86 273.866 230.592 272.786L225.809 268.701L240.987 250.984C241.237 250.688 241.401 250.327 241.461 249.944C241.52 249.56 241.471 249.167 241.321 248.809L238.171 241.358L240.051 239.153C240.231 238.945 240.368 238.703 240.454 238.441C240.54 238.18 240.574 237.904 240.553 237.629C240.532 237.355 240.457 237.087 240.332 236.842C240.207 236.597 240.035 236.379 239.825 236.2L230.248 228.021C230.039 227.841 229.797 227.705 229.535 227.62C229.273 227.535 228.997 227.502 228.722 227.524C228.448 227.546 228.18 227.622 227.935 227.748C227.691 227.874 227.473 228.047 227.295 228.257L227.344 228.198ZM198.426 268.494L202.983 276.073L200.414 279.095L195.847 271.516L198.426 268.494ZM190.965 283.131C191.3 282.255 191.436 281.316 191.362 280.381C191.289 279.447 191.009 278.54 190.542 277.727L192.973 274.882L197.54 282.461L194.43 286.093L190.965 283.131ZM217.629 278.318L217.689 278.249C218.463 279.483 219.489 280.541 220.7 281.351C221.911 282.162 223.28 282.708 224.716 282.954L224.008 283.77C223.285 284.616 222.255 285.14 221.146 285.227C220.036 285.314 218.938 284.956 218.092 284.233C217.246 283.51 216.722 282.481 216.636 281.371C216.549 280.262 216.906 279.163 217.629 278.318ZM228.358 278.603C226.829 279.095 225.168 278.973 223.728 278.262C222.288 277.551 221.181 276.307 220.641 274.794L223.082 271.939L227.866 276.024C228.231 276.333 228.479 276.757 228.568 277.226C228.658 277.696 228.584 278.182 228.358 278.603ZM236.951 249.252L214.44 275.591C213.383 276.831 212.71 278.351 212.501 279.967C212.293 281.582 212.56 283.224 213.268 284.691C213.977 286.157 215.096 287.387 216.491 288.228C217.886 289.07 219.496 289.487 221.124 289.43L230.248 299.499C230.582 299.883 230.766 300.374 230.766 300.882C230.766 301.391 230.582 301.882 230.248 302.265L224.972 308.456C224.776 308.685 224.533 308.869 224.26 308.994C223.986 309.12 223.689 309.185 223.388 309.185C223.086 309.185 222.789 309.12 222.515 308.994C222.242 308.869 221.999 308.685 221.803 308.456C204.253 288.525 205.346 289.755 205.178 289.607C204.188 288.764 202.961 288.248 201.666 288.13C200.37 288.012 199.07 288.297 197.944 288.948L197.708 288.771L235.209 244.881L236.951 249.252ZM235.504 238.021L205.857 272.717L201.3 265.138L229.205 232.519L235.504 238.021Z" fill="#303030"/>
<path d="M223.378 313.909C222.413 313.909 221.46 313.704 220.581 313.307C219.701 312.91 218.917 312.33 218.279 311.606L202.019 293.141C201.694 292.909 201.294 292.806 200.897 292.853C200.5 292.901 200.135 293.095 199.873 293.397C199.653 293.656 199.384 293.87 199.081 294.025C198.778 294.18 198.448 294.274 198.109 294.302C197.77 294.329 197.428 294.289 197.105 294.185C196.781 294.08 196.481 293.913 196.222 293.692L186.645 285.513C186.124 285.065 185.803 284.43 185.749 283.746C185.696 283.062 185.915 282.384 186.359 281.861C186.634 281.535 186.772 281.115 186.743 280.69C186.726 280.48 186.667 280.275 186.571 280.088C186.475 279.9 186.343 279.734 186.182 279.597C185.671 279.15 185.354 278.521 185.301 277.844C185.248 277.167 185.461 276.496 185.897 275.975L222.561 233.06L221.331 231.987C221.07 231.769 220.856 231.5 220.701 231.198C220.545 230.895 220.451 230.565 220.425 230.226C220.374 229.538 220.597 228.859 221.045 228.336C221.493 227.816 222.128 227.494 222.812 227.44C223.496 227.387 224.174 227.606 224.697 228.05L225.917 229.094L226.961 227.873C227.408 227.353 228.044 227.031 228.728 226.978C229.412 226.924 230.089 227.143 230.612 227.588L240.18 235.767C240.44 235.986 240.654 236.254 240.81 236.557C240.965 236.859 241.059 237.19 241.085 237.529C241.136 238.216 240.913 238.895 240.465 239.419L238.782 241.387L241.814 248.563C242.003 249.004 242.065 249.49 241.992 249.965C241.918 250.44 241.714 250.885 241.4 251.25L226.538 268.632L230.957 272.402C232.312 273.57 233.153 275.224 233.298 277.007C233.444 278.789 232.882 280.558 231.735 281.93L226.41 288.17L233.752 296.291C234.859 297.514 235.483 299.098 235.508 300.748C235.534 302.398 234.959 304 233.89 305.257L228.526 311.527C227.894 312.266 227.111 312.861 226.23 313.272C225.349 313.683 224.39 313.9 223.417 313.909H223.368H223.378ZM201.084 291.852C201.65 291.854 202.199 292.041 202.649 292.383L202.718 292.442L219.008 310.956C219.557 311.581 220.234 312.081 220.994 312.421C221.753 312.761 222.577 312.934 223.409 312.927C224.241 312.921 225.061 312.735 225.815 312.383C226.569 312.031 227.238 311.521 227.778 310.888L233.142 304.618C234.055 303.543 234.547 302.172 234.525 300.762C234.504 299.351 233.97 297.997 233.024 296.95L225.091 288.19L230.947 281.3C231.942 280.127 232.434 278.609 232.316 277.076C232.198 275.542 231.48 274.117 230.317 273.111L225.15 268.701L240.652 250.571C240.845 250.344 240.971 250.069 241.016 249.775C241.061 249.482 241.024 249.181 240.908 248.907L237.64 241.171L239.717 238.74C239.856 238.58 239.962 238.394 240.028 238.193C240.094 237.992 240.118 237.779 240.101 237.568C240.064 237.145 239.863 236.752 239.54 236.476L229.973 228.296C229.813 228.158 229.628 228.053 229.427 227.987C229.226 227.921 229.014 227.895 228.804 227.911C228.593 227.928 228.388 227.986 228.2 228.083C228.012 228.179 227.845 228.312 227.709 228.474L226.026 230.442L224.057 228.759C223.897 228.622 223.711 228.518 223.511 228.453C223.31 228.387 223.099 228.362 222.889 228.379C222.678 228.395 222.473 228.453 222.285 228.549C222.098 228.644 221.93 228.776 221.793 228.936C221.656 229.096 221.552 229.282 221.487 229.483C221.422 229.683 221.397 229.895 221.413 230.105C221.429 230.315 221.487 230.52 221.583 230.708C221.678 230.896 221.81 231.063 221.97 231.2L223.939 232.883L186.635 276.546C186.36 276.871 186.225 277.29 186.258 277.714C186.291 278.138 186.49 278.532 186.812 278.81C187.332 279.257 187.654 279.893 187.707 280.577C187.761 281.261 187.542 281.938 187.097 282.461C186.823 282.786 186.687 283.206 186.721 283.63C186.754 284.054 186.953 284.447 187.275 284.725L196.852 292.905C197.01 293.042 197.195 293.146 197.394 293.21C197.594 293.275 197.804 293.298 198.013 293.279C198.225 293.265 198.433 293.208 198.622 293.112C198.812 293.015 198.979 292.881 199.115 292.718C199.358 292.433 199.66 292.204 200 292.048C200.34 291.892 200.71 291.811 201.084 291.812V291.852ZM223.368 309.677C222.996 309.68 222.627 309.602 222.287 309.449C221.947 309.296 221.645 309.072 221.4 308.791L211.488 297.541C205.976 291.281 204.982 290.149 204.874 290.05C203.96 289.265 202.826 288.783 201.627 288.671C200.428 288.558 199.224 288.82 198.18 289.42L197.875 289.597L196.96 288.81L235.347 243.946L237.601 249.281L214.893 275.857C213.887 277.02 213.242 278.452 213.04 279.976C212.838 281.501 213.086 283.052 213.755 284.437C214.424 285.822 215.484 286.98 216.804 287.77C218.124 288.559 219.646 288.945 221.183 288.879H221.409L230.691 299.115C231.103 299.591 231.329 300.199 231.329 300.828C231.329 301.457 231.103 302.065 230.691 302.541L225.327 308.811C225.085 309.097 224.783 309.327 224.443 309.485C224.103 309.643 223.733 309.725 223.358 309.726L223.368 309.677ZM201.074 287.619C202.694 287.618 204.26 288.194 205.494 289.243C205.582 289.302 205.582 289.302 212.226 296.852L222.158 308.141C222.313 308.311 222.502 308.447 222.711 308.542C222.921 308.637 223.148 308.688 223.378 308.693C223.609 308.69 223.836 308.637 224.045 308.539C224.254 308.44 224.439 308.298 224.589 308.122L229.953 301.852C230.211 301.558 230.352 301.18 230.352 300.789C230.352 300.398 230.211 300.02 229.953 299.726L220.986 289.824C218.839 289.861 216.754 289.103 215.13 287.698C214.241 286.942 213.509 286.018 212.978 284.979C212.447 283.94 212.127 282.806 212.036 281.642C211.944 280.479 212.083 279.309 212.445 278.2C212.808 277.09 213.385 276.063 214.145 275.178L236.459 249.065L235.061 245.758L198.997 287.964C199.68 287.738 200.394 287.621 201.114 287.619H201.074ZM194.558 286.635L190.464 283.131L190.582 282.806C190.89 281.999 191.014 281.133 190.946 280.271C190.878 279.41 190.619 278.575 190.188 277.825L190.021 277.52L193.121 273.888L198.22 282.363L194.558 286.635ZM191.605 282.835L194.43 285.247L196.989 282.294L192.964 275.601L191.192 277.668C192.005 279.279 192.154 281.145 191.605 282.865V282.835ZM220.868 285.611C219.974 285.609 219.099 285.351 218.346 284.868C217.594 284.385 216.996 283.696 216.622 282.883C216.248 282.071 216.115 281.169 216.238 280.283C216.361 279.397 216.734 278.565 217.315 277.885L217.807 277.304L218.161 277.875C218.903 279.045 219.882 280.048 221.035 280.817C222.188 281.587 223.489 282.107 224.854 282.343L225.711 282.491L224.441 283.977C224.041 284.446 223.553 284.83 223.004 285.109C222.455 285.388 221.856 285.555 221.242 285.601H220.868V285.611ZM217.728 278.967C217.218 279.761 217.03 280.719 217.203 281.646C217.375 282.574 217.896 283.4 218.657 283.957C219.419 284.513 220.364 284.758 221.3 284.641C222.236 284.524 223.092 284.054 223.693 283.328L223.86 283.131C221.39 282.508 219.219 281.033 217.728 278.967ZM200.395 279.804L195.296 271.339L198.554 267.53L203.653 275.995L200.395 279.804ZM196.458 271.437L200.484 278.131L202.432 275.975L198.407 269.292L196.458 271.437ZM226.459 279.312C225.083 279.312 223.74 278.885 222.617 278.09C221.494 277.295 220.646 276.171 220.189 274.873L220.091 274.597L223.043 271.152L228.211 275.562C228.655 275.948 228.956 276.473 229.065 277.052C229.174 277.631 229.084 278.229 228.811 278.751L228.713 278.928L228.526 278.987C227.861 279.199 227.167 279.308 226.469 279.312H226.459ZM221.222 274.804C221.75 276.095 222.736 277.147 223.991 277.757C225.246 278.367 226.682 278.493 228.024 278.111C228.139 277.8 228.157 277.462 228.076 277.14C227.995 276.819 227.819 276.529 227.571 276.31L223.152 272.54L221.222 274.804ZM205.809 273.465L200.71 265L229.087 231.791L236.213 237.883L205.809 273.465ZM201.921 265.099L205.946 271.782L234.825 237.992L229.205 233.208L201.921 265.099Z" fill="#161615"/>
<path d="M21.4012 249.045C21.4237 248.787 21.9513 242.707 27.1844 239.043C32.0735 235.621 34.1236 234.021 34.1439 234.003L35.387 233.041L35.4986 234.622C35.5499 235.507 35.6806 236.386 35.8889 237.248L36.0972 237.397C40.7592 240.671 43.3734 246.375 43.8664 254.351L43.8948 254.824C44.6576 267.177 45.0849 273.979 48.1591 275.361C51.2332 276.744 54.6383 274.343 54.6841 274.317L54.9822 274.102L55.3442 274.199C57.2422 274.614 65.2529 283.371 67.5962 287.567C68.3548 288.934 68.5811 289.856 68.3476 290.554C68.2673 290.755 68.1408 290.935 67.9783 291.079C67.8159 291.223 67.6219 291.326 67.4121 291.381C63.544 292.672 38.9904 285.085 35.1743 282.534C32.7781 280.938 33.1522 277.283 33.5961 273.05C34.0058 269.118 34.4624 264.663 32.7621 261.251C29.3243 254.364 21.8789 249.925 21.8413 249.892L21.386 249.623L21.4012 249.045ZM35.2825 273.183C34.8987 276.874 34.5724 280.061 36.1183 281.096C40.4881 284.012 63.7522 290.564 66.7681 289.789C66.6508 288.982 65.3123 286.536 61.7144 282.361C59.8057 280.006 57.6608 277.853 55.3131 275.936C54.1542 276.642 50.8486 278.324 47.552 276.874C43.5263 275.105 43.1072 268.36 42.2844 254.928L42.2487 254.453C41.7884 247.021 39.4449 241.754 35.1924 238.776C34.9773 238.647 34.7853 238.483 34.6243 238.29C34.2918 237.66 34.0942 236.968 34.0442 236.257C32.9508 237.066 31.0719 238.432 28.1989 240.44C25.5199 242.435 23.7244 245.397 23.1939 248.695C24.9689 249.83 31.1357 254.089 34.3275 260.476C34.754 261.339 35.0749 262.251 35.2834 263.191C36.0253 266.416 35.6619 269.972 35.3259 273.195" fill="#303030"/>
<path d="M17.8451 272.103C18.4833 270.022 19.0157 267.909 19.4403 265.773C20.6778 259.418 20.5184 257.117 20.4196 255.749C20.3916 255.361 20.3718 255.03 20.3789 254.714C20.3967 252.439 20.885 250.193 21.8132 248.116L22.2186 247.356L22.9677 247.774C25.0532 248.969 27.0179 250.363 28.8344 251.937C31.716 254.501 31.4453 256.438 31.4055 256.644L31.2891 257.079L30.8844 257.257C30.8844 257.257 27.1916 258.936 25.3018 265.381C24.7658 267.208 24.3321 269 23.9633 270.608C23.0686 274.411 22.4204 277.177 20.8713 278.065C20.5916 278.229 20.2804 278.332 19.9581 278.368C19.6357 278.403 19.3096 278.37 19.001 278.27C18.6534 278.191 18.3255 278.042 18.0377 277.831C17.75 277.621 17.5083 277.353 17.3275 277.046C17.228 276.865 17.1548 276.67 17.11 276.468C16.8728 275.442 17.2644 274.097 17.8509 272.082L17.8451 272.103ZM29.6884 255.959C29.3274 254.843 28.6342 253.865 27.7015 253.154C26.2166 251.869 24.628 250.709 22.952 249.686C22.4028 251.31 22.1045 253.009 22.0674 254.724C22.0647 254.995 22.0817 255.279 22.1107 255.605C22.2079 257.066 22.3778 259.501 21.0985 266.07C20.5652 268.813 19.956 270.885 19.4698 272.554C18.9454 274.338 18.5416 275.758 18.7968 276.253C18.9656 276.46 19.2044 276.599 19.4683 276.642C19.5569 276.68 19.6533 276.697 19.7495 276.69C19.8457 276.683 19.939 276.654 20.0215 276.604C20.9393 276.074 21.6181 273.223 22.3244 270.239C22.7024 268.626 23.1313 266.793 23.679 264.923C25.3856 259.104 28.4353 256.756 29.6748 256.01L29.6884 255.959Z" fill="#303030"/>
<path d="M208.909 24.9716C209.102 23.2923 209.613 21.6651 210.414 20.1764C210.617 19.7211 210.917 19.3159 211.294 18.9895C211.67 18.663 212.114 18.4232 212.594 18.2871C212.828 18.2546 213.065 18.2561 213.299 18.2914C213.476 18.3213 213.65 18.3671 213.819 18.4282C214.044 18.4924 213.819 18.4282 213.983 18.5226C214.39 18.7226 214.765 18.983 215.094 19.2951C217.075 21.2617 218.608 23.6329 219.588 26.2465C220.126 27.4593 220.505 28.7363 220.717 30.046C220.791 30.5293 220.804 31.0199 220.756 31.5064C220.729 31.8039 220.621 32.0883 220.444 32.3288C220.557 32.1327 220.402 32.4023 220.325 32.423C220.496 32.315 220.22 32.4717 220.177 32.4902C220.302 32.4428 219.768 32.6136 219.652 32.6447C219.372 32.7201 219.085 32.7624 218.795 32.7707C217.934 32.7993 217.092 32.5145 216.426 31.9692C215.635 31.3331 215.018 30.5083 214.63 29.5708C214.19 28.4456 212.467 29.4114 212.978 30.5451C214.249 33.5882 217.56 35.5324 220.779 34.3521C223.536 33.3511 222.804 29.6938 222.153 27.5204C221.172 24.2884 219.513 21.3028 217.286 18.7631C216.458 17.7296 215.347 16.9595 214.089 16.5468C213.359 16.3571 212.591 16.3635 211.864 16.5656C211.138 16.7676 210.477 17.158 209.95 17.6973C208.207 19.4142 207.365 22.1741 207.074 24.5656C207.017 24.813 207.057 25.0728 207.186 25.2914C207.316 25.5099 207.524 25.6705 207.768 25.7399C207.891 25.7744 208.019 25.7837 208.146 25.7672C208.272 25.7507 208.394 25.7087 208.504 25.6438C208.613 25.5789 208.709 25.4924 208.784 25.3896C208.86 25.2867 208.913 25.1696 208.942 25.0454" fill="#303030"/>
<path d="M207.142 34.3322C208.144 36.1371 209.381 37.8004 210.822 39.278C211.713 40.2882 212.88 41.015 214.179 41.3687C214.792 41.5081 215.432 41.4536 216.013 41.2128C216.593 40.972 217.083 40.5568 217.417 40.0247C217.968 38.8957 218.098 37.6071 217.783 36.3909C217.49 34.8871 217.004 33.4275 216.336 32.0482C215.729 30.687 215.002 29.3819 214.166 28.1481C213.572 27.1079 212.718 26.2396 211.688 25.6285C210.875 25.2671 209.988 25.0978 209.099 25.1338C208.209 25.1698 207.34 25.4101 206.558 25.8361C205.576 26.3752 204.732 27.1331 204.091 28.051C203.449 28.969 203.028 30.0223 202.859 31.1294C202.638 32.3418 204.506 32.8427 204.752 31.6234C204.857 30.8283 205.134 30.0656 205.563 29.3879C205.992 28.7102 206.563 28.1337 207.236 27.6984C207.75 27.3689 208.333 27.1616 208.939 27.0925C209.545 27.0234 210.16 27.0943 210.734 27.2998C211.444 27.7134 212.034 28.3053 212.444 29.0168C213.149 30.0559 213.776 31.1459 214.319 32.2779C214.905 33.4388 215.374 34.6547 215.72 35.9078C216.018 36.8005 216.093 37.7525 215.938 38.6807C215.915 38.8164 215.864 38.946 215.79 39.0618C215.715 39.1775 215.618 39.2771 215.504 39.3547C215.39 39.4322 215.262 39.486 215.127 39.5131C214.992 39.5401 214.853 39.5396 214.718 39.5119C213.751 39.2473 212.889 38.6925 212.248 37.9224C210.927 36.5705 209.796 35.0453 208.885 33.3887C208.756 33.1697 208.545 33.0109 208.299 32.9474C208.053 32.8839 207.791 32.9208 207.572 33.05C207.353 33.1792 207.195 33.3901 207.131 33.6363C207.067 33.8826 207.104 34.144 207.234 34.363" fill="#303030"/>
<path d="M237.123 25.5323C233.075 21.7139 229.038 17.8581 224.864 14.1843C223.085 12.6237 220.867 10.7874 218.393 10.7319C214.161 10.685 213.937 16.677 215.299 19.4678C216.141 21.2173 217.645 22.3472 218.998 23.6836C220.35 25.02 220.566 27.2686 220.73 29.0408C220.825 30.2722 222.761 30.2784 222.64 29.054C222.565 27.2476 222.167 25.4692 221.467 23.8023C220.799 22.708 219.928 21.7508 218.902 20.9815C218.21 20.4151 217.638 19.7165 217.219 18.9266C216.8 18.1366 216.542 17.2711 216.461 16.3805C216.413 15.0675 216.623 12.6289 218.408 12.6684C219.651 12.8389 220.822 13.3526 221.789 14.1519C222.472 14.6564 223.126 15.198 223.75 15.7741C226.093 17.8462 228.382 19.9953 230.672 22.1233L235.748 26.8951C236.652 27.7439 238.031 26.394 237.133 25.5159" fill="#303030"/>
<path d="M221.569 6.55278L223.853 6.59687L224.181 6.61238C224.307 6.61356 224.432 6.58992 224.549 6.54282C224.666 6.49572 224.772 6.42608 224.862 6.33788C224.952 6.24968 225.023 6.14463 225.073 6.02875C225.122 5.91287 225.148 5.78841 225.149 5.6625C225.15 5.53659 225.127 5.41168 225.08 5.2949C225.032 5.17812 224.963 5.07176 224.875 4.98189C224.786 4.89203 224.681 4.82042 224.566 4.77115C224.45 4.72188 224.325 4.69591 224.199 4.69474L221.907 4.64591L221.579 4.63041C221.453 4.62924 221.328 4.65288 221.211 4.69998C221.094 4.74708 220.988 4.81672 220.898 4.90492C220.808 4.99312 220.737 5.09816 220.687 5.21404C220.638 5.32992 220.612 5.45437 220.611 5.58029C220.61 5.7062 220.633 5.83111 220.68 5.94789C220.728 6.06467 220.797 6.17103 220.885 6.26089C220.974 6.35076 221.079 6.42237 221.194 6.47164C221.31 6.52091 221.435 6.54689 221.561 6.54806" fill="#303030"/>
<path d="M205.567 38.2485C206.58 37.8529 207.598 37.449 208.618 37.0581L209.051 36.8939C209.293 36.8151 209.5 36.6521 209.632 36.4343C209.757 36.2176 209.791 35.9601 209.726 35.7185C209.662 35.4768 209.503 35.2708 209.287 35.1457C209.178 35.0819 209.057 35.0406 208.932 35.0244C208.806 35.0081 208.679 35.0173 208.557 35.0512C207.536 35.4421 206.524 35.8378 205.506 36.2416C205.36 36.2877 205.217 36.3468 205.074 36.4058C204.83 36.4775 204.622 36.6366 204.489 36.8525C204.364 37.0692 204.33 37.3267 204.395 37.5683C204.46 37.81 204.618 38.016 204.834 38.1411C204.944 38.2068 205.066 38.2495 205.193 38.2666C205.32 38.2837 205.449 38.2747 205.572 38.2403" fill="#303030"/>
<path d="M226.282 21.1793L227.858 19.072C227.919 18.9658 227.985 18.8514 228.088 18.7688C228.151 18.6597 228.193 18.5389 228.209 18.4136C228.225 18.2882 228.216 18.1609 228.182 18.0391C228.15 17.9152 228.093 17.799 228.015 17.6977C227.937 17.5963 227.839 17.512 227.727 17.4497C227.618 17.3859 227.497 17.3446 227.372 17.3284C227.247 17.3122 227.119 17.3213 226.997 17.3552C226.756 17.4307 226.549 17.5889 226.413 17.8019L224.832 19.9174L224.607 20.2124C224.543 20.3215 224.502 20.4423 224.486 20.5677C224.47 20.693 224.479 20.8203 224.513 20.9421C224.543 21.0665 224.598 21.1835 224.674 21.286C224.751 21.3885 224.847 21.4743 224.958 21.5383C225.069 21.6023 225.192 21.6431 225.319 21.6581C225.446 21.6732 225.575 21.6623 225.697 21.626C225.935 21.5445 226.141 21.3877 226.282 21.1793Z" fill="#303030"/>
<path d="M222.027 9.55137L224.8 9.25715L225.196 9.21328C225.446 9.20853 225.686 9.10979 225.867 8.93663C225.961 8.84727 226.035 8.7397 226.085 8.62056C226.135 8.50143 226.16 8.37329 226.158 8.24408C226.159 8.1194 226.135 7.99583 226.087 7.88054C226.04 7.76525 225.97 7.66053 225.882 7.57241C225.792 7.47908 225.685 7.40508 225.566 7.35504C225.446 7.305 225.318 7.27997 225.189 7.2815L222.416 7.5757L222.02 7.61957C221.77 7.62785 221.532 7.72609 221.349 7.89622C221.255 7.98333 221.181 8.08842 221.129 8.20514C221.078 8.32185 221.051 8.44777 221.05 8.57529C221.048 8.7028 221.073 8.82925 221.122 8.94702C221.171 9.06478 221.243 9.1714 221.334 9.26044C221.424 9.35377 221.531 9.42777 221.65 9.47781C221.769 9.52785 221.898 9.55289 222.027 9.55137Z" fill="#303030"/>
<path d="M198.378 31.2114L199.667 30.8661L199.855 30.8225C199.976 30.7922 200.088 30.7338 200.182 30.652C200.29 30.5779 200.379 30.4808 200.445 30.3677C200.509 30.2577 200.547 30.134 200.555 30.0066C200.584 29.8846 200.578 29.757 200.539 29.638C200.509 29.5136 200.454 29.3965 200.378 29.2941C200.301 29.1916 200.204 29.1057 200.094 29.0417C199.983 28.9778 199.86 28.937 199.733 28.9219C199.606 28.9068 199.477 28.9178 199.355 28.954L198.066 29.2993L197.873 29.3511C197.75 29.3767 197.637 29.4357 197.545 29.5217C197.44 29.593 197.352 29.6874 197.288 29.7978C197.224 29.9082 197.187 30.0317 197.178 30.1589C197.149 30.2809 197.154 30.4084 197.193 30.5275C197.223 30.6519 197.278 30.7689 197.355 30.8714C197.432 30.9739 197.528 31.0598 197.639 31.1237C197.75 31.1877 197.872 31.2285 198 31.2436C198.127 31.2586 198.255 31.2477 198.378 31.2114Z" fill="#303030"/>
<path d="M218.668 11.6528C218.668 11.6528 218.173 14.7548 219.562 15.7637C220.951 16.7726 222.826 14.696 222.826 14.696L218.668 11.6528Z" fill="#303030"/>
<path d="M219.739 28.4573L216.087 30.2161C216.087 30.2161 217.181 32.2639 218.991 31.6962C220.145 31.3387 219.763 28.4715 219.763 28.4715" fill="#303030"/>
<path d="M214.615 35.4444L212.142 37.2189C212.142 37.2189 213.696 39.2817 215.15 38.0081C215.841 37.4156 214.615 35.4444 214.615 35.4444Z" fill="#303030"/>
<path d="M246.367 54.8766C244.712 53.6488 242.036 53.5855 240.09 53.6926C237.261 53.8882 234.477 54.5016 231.828 55.5127C228.71 56.5534 225.739 57.9946 222.992 59.8002C221.189 61.036 218.979 62.8643 219.066 65.2785C219.107 66.5108 221.042 66.5171 220.976 65.2917C221.03 64.7911 221.188 64.3074 221.44 63.8713C221.692 63.4353 222.032 63.0565 222.438 62.7592C223.576 61.7375 224.838 60.8633 226.195 60.1573C229.572 58.2744 233.209 56.9019 236.988 56.0844C239.144 55.5563 241.388 55.4894 243.572 55.8879C244.235 55.9731 244.869 56.2123 245.423 56.5865C246.423 57.3269 247.381 55.6475 246.367 54.9526" fill="#303030"/>
<path d="M231.18 60.0506C227.984 61.4732 225.706 63.2298 226.052 64.0282C226.397 64.8265 229.267 64.3268 232.448 62.9287C235.63 61.5306 237.914 59.7448 237.564 58.9546C237.214 58.1644 234.354 58.6478 231.18 60.0506Z" fill="#303030"/>
<path d="M233.115 60.6234L234.919 67.9712C234.97 68.1792 235.091 68.3635 235.262 68.4935C235.432 68.6236 235.642 68.6917 235.856 68.6867C236.334 68.6845 236.81 68.74 237.275 68.8522C237.631 68.916 237.977 69.0277 238.303 69.1844C238.426 69.2336 238.542 69.3003 238.646 69.3825C238.744 69.4391 238.752 69.4438 238.732 69.5736C238.684 70.0959 238.505 70.5976 238.211 71.0316C237.916 71.4657 237.516 71.8177 237.049 72.0548C236.975 72.0884 236.873 72.0949 236.91 72.1056C236.72 72.0132 236.557 71.874 236.436 71.701C236.23 71.4686 236.047 71.2171 235.889 70.9498C235.81 70.7956 235.69 70.6663 235.542 70.576C235.394 70.4858 235.223 70.4381 235.05 70.4381C234.877 70.4382 234.707 70.4861 234.559 70.5764C234.411 70.6668 234.291 70.7963 234.211 70.9505C234.032 71.3078 233.832 71.6543 233.612 71.988C233.326 72.494 232.927 72.9271 232.446 73.2535C232.474 73.2045 232.446 73.2535 232.446 73.2535C232.446 73.2535 232.345 73.1079 232.446 73.2535C232.547 73.399 232.34 73.1922 232.324 73.1827C231.951 72.8525 231.686 72.4187 231.561 71.9367C231.488 71.6994 231.511 71.4426 231.626 71.2221C231.508 71.4264 231.798 71.093 231.843 71.0534C231.887 71.0138 232.092 70.8486 232.22 70.7591C232.347 70.6571 232.481 70.5635 232.621 70.4789C232.802 70.369 232.944 70.2044 233.026 70.0088C233.107 69.8131 233.125 69.5966 233.075 69.3904L230.451 62.0694C230.035 60.9033 228.171 61.3958 228.595 62.5666L231.267 69.8059C231.419 69.4474 231.568 69.076 231.721 68.7175C230.575 69.439 229.539 70.2897 229.657 71.7633C229.77 73.059 230.723 74.7856 232.1 75.0796C233.886 75.4573 235.235 73.1969 235.888 71.8203L234.215 71.8128C234.867 72.9086 235.929 74.1641 237.369 73.8955C239.08 73.5545 240.302 71.7218 240.639 70.1191C241.161 67.4795 237.885 66.7757 235.914 66.7377L236.86 67.458L235.056 60.1101C234.753 58.9001 232.893 59.4055 233.188 60.6108" fill="#303030"/>
<path d="M231.837 61.4216C233.447 60.7781 235.145 60.3813 236.874 60.2448C237.152 59.9699 237.281 59.7282 237.216 59.5384C236.965 58.8598 234.226 59.2279 231.09 60.3582C227.954 61.4886 225.616 62.9712 225.862 63.6579C225.946 63.8911 226.332 63.9947 226.92 63.9961C228.384 62.8352 230.047 61.9498 231.827 61.383" fill="#303030"/>
<path d="M218.14 11.9255C218.346 13.1339 220.202 12.6367 220.008 11.4248C219.284 7.19685 219.038 2.90061 219.277 -1.38238C219.436 -3.75221 219.656 -7.699 221.802 -9.30296C224.424 -11.2968 225.355 -5.34521 225.797 -3.61975C227.631 3.71298 227.726 11.905 230.952 18.7887C232.684 22.4681 236.03 25.6527 237.179 29.5295C237.881 31.9172 237.704 34.4508 238.491 36.8225C240.15 41.778 241.951 46.6956 243.662 51.6374C244.526 54.1405 245.534 56.1493 243.36 58.4996C241.106 60.8054 238.38 62.5979 235.37 63.755L236.106 65.7813C240.228 64.0762 243.964 61.6041 245.908 58.3694C247.243 56.0574 246.533 54.0792 245.74 51.8128L242.295 41.8941C241.371 39.6081 240.604 37.2619 239.999 34.8717C239.608 32.9253 239.651 30.9458 239.104 29.0069C238.483 26.8185 237.19 25.1898 235.92 23.3343C232.978 18.9752 231.041 14.0176 230.249 8.81907C229.432 4.12116 228.694 -0.618527 227.456 -5.21066C226.915 -7.17877 226.021 -11.6489 223.371 -11.9263C220.721 -12.2037 218.939 -8.85353 218.292 -6.73276C216.523 -0.913746 217.267 5.98588 218.221 11.9176" fill="#303030"/>
<path d="M230.259 65.5322C227.957 66.3304 225.534 66.7295 223.097 66.7125C220.185 66.5673 220.074 62.0808 219.217 59.8106C217.738 55.9393 215.312 53.1987 212.164 50.5755C208.814 47.7372 204.102 45.1257 201.548 41.4942C198.78 37.554 196.885 31.9503 195.541 27.3729C195.121 25.9108 193.848 18.2483 197.274 22.0885C199.78 24.8972 200.872 28.8932 202.675 32.1458C202.805 32.3648 203.016 32.5236 203.262 32.5871C203.508 32.6506 203.769 32.6137 203.988 32.4845C204.208 32.3553 204.366 32.1444 204.43 31.8981C204.493 31.6519 204.456 31.3905 204.327 31.1714C203.134 29.0121 197.766 14.5953 193.489 20.1539C192.091 21.9718 192.904 25.034 193.42 27.009C194.37 30.3948 195.611 33.692 197.131 36.8633C197.881 38.7833 198.783 40.6407 199.827 42.4179C202.655 46.7082 208.243 49.6512 212.029 53.0355C214.355 54.9815 216.165 57.4707 217.3 60.2829C218.01 62.109 218.378 64.0752 219.069 65.879C220.073 68.4412 221.845 68.7674 224.487 68.5498C226.68 68.3736 228.853 68.0106 230.984 67.4648L230.259 65.5322Z" fill="#303030"/>
<path d="M21.1033 36.3672C21.1033 36.3672 14.0939 22.777 16.4491 16.4385C18.8044 10.1 24.8284 7.66907 29.4097 7.53058C33.9909 7.39208 40.3625 10.1721 43.249 8.86421C46.1354 7.55636 53.7303 4.9667 61.3031 8.5038C68.8759 12.0409 71.811 16.2963 73.9526 22.2567C76.0942 28.2171 23.5553 39.5723 23.5553 39.5723L21.1033 36.3672Z" fill="#B63847"/>
<path d="M70.4196 25.8555C64.6804 15.7264 51.3361 16.9929 46.3149 17.5215C41.2936 18.0502 34.4061 17.1832 30.716 21.7012C27.0259 26.2193 28.48 37.5167 28.48 37.5167L48.2559 37.2596L70.4196 25.8555Z" fill="#161615"/>
<path d="M62.7665 24.014C61.9122 23.2345 60.7063 20.0888 61.2539 18.3691C61.3393 18.0507 61.5189 17.7656 61.769 17.551C62.0192 17.3365 62.3284 17.2024 62.656 17.1665C63.1723 17.0988 64.1614 17.8925 64.8594 18.6534C65.5574 19.4142 66.8298 21.0396 66.4541 22.7234C66.1402 24.1486 65.4538 24.6351 64.9884 24.7799C64.5883 24.8614 64.1737 24.8371 63.7858 24.7094C63.3979 24.5817 63.05 24.355 62.7765 24.0516L62.7665 24.014ZM61.8665 18.5478C61.3789 20.0397 62.4766 22.9321 63.2227 23.6094C63.4197 23.8365 63.672 24.0088 63.9552 24.1096C64.2384 24.2104 64.5429 24.2363 64.839 24.1847C65.3565 24.046 65.7247 23.4634 65.9269 22.5621C65.9682 21.9955 65.8921 21.4264 65.7034 20.8906C65.5147 20.3547 65.2174 19.8635 64.8302 19.4477C64.3152 18.7109 63.6151 18.1229 62.8004 17.7429C62.5852 17.7615 62.3814 17.8478 62.2183 17.9893C62.0551 18.1308 61.941 18.3204 61.8922 18.5308" fill="#FBFBF2"/>
<path d="M65.0793 25.1181C64.6187 25.2181 64.1398 25.1953 63.6908 25.0519C63.2418 24.9085 62.8383 24.6496 62.521 24.3011C61.6133 23.4351 60.2925 20.1992 60.9445 18.2296C61.0424 17.841 61.2577 17.4921 61.5611 17.2303C61.8645 16.9686 62.2412 16.8067 62.6399 16.7669C63.5358 16.6479 64.8877 18.0805 65.1547 18.3619C65.7999 19.0764 67.2602 20.9136 66.8376 22.7613C66.4819 24.3691 65.6902 24.914 65.0837 25.0967L65.0793 25.1181ZM62.2061 18.6478C61.7792 19.9521 62.7945 22.7253 63.4666 23.3519C63.9013 23.7699 64.4078 23.9669 64.7202 23.853C65.0325 23.739 65.3977 23.258 65.5693 22.5062C65.5954 21.9924 65.5172 21.4787 65.3393 20.9961C65.1615 20.5134 64.8877 20.0718 64.5345 19.6978C64.0652 19.0669 63.4708 18.5397 62.7884 18.1489C62.6562 18.1652 62.5311 18.2178 62.427 18.3009C62.3229 18.384 62.2438 18.4943 62.1986 18.6196L62.2061 18.6478Z" fill="#303030"/>
<path d="M57.3944 25.8664C55.9286 25.2508 55.4942 21.8984 55.6548 19.7882C55.6906 19.3361 55.7003 18.8823 55.6839 18.4291C55.6851 16.8154 55.6712 15.1453 57.5152 14.6512C59.2275 14.1924 61.9787 17.7609 62.9323 19.8146C63.2947 20.4483 63.5239 21.1495 63.6055 21.8749C63.6872 22.6004 63.6197 23.3349 63.4073 24.0334C63.2646 24.3866 63.046 24.7042 62.767 24.9637C62.4881 25.2231 62.1555 25.4181 61.7928 25.5349C61.3224 25.6609 60.8671 25.8434 60.519 25.9367C59.4689 26.2955 58.3265 26.2771 57.2884 25.8847L57.3944 25.8664ZM57.5869 15.2572C56.2603 15.6126 56.1982 16.6981 56.2016 18.4417C56.2046 18.9047 56.2102 19.3772 56.1757 19.8503C56.0033 22.1048 56.5281 24.9288 57.5318 25.3254C58.6718 25.8165 59.8372 25.5749 61.6083 24.9591C61.8836 24.8693 62.1353 24.7194 62.3453 24.5201C62.5553 24.3208 62.7182 24.0772 62.8222 23.807C63.0007 23.1882 63.0526 22.5399 62.9749 21.9006C62.8971 21.2613 62.6913 20.6443 62.3698 20.0863C61.2151 17.7336 58.697 14.9597 57.6057 15.2521" fill="#FBFBF2"/>
<path d="M60.7234 26.2855C59.5904 26.6676 58.3594 26.6407 57.2442 26.2093C55.4458 25.4812 55.1481 21.5476 55.2859 19.7662C55.3211 19.3333 55.3206 18.8796 55.3157 18.4474C55.31 16.8456 55.3051 14.8705 57.4126 14.3058C59.52 13.7411 62.3229 17.5782 63.3098 19.6431C63.6997 20.3231 63.9443 21.0766 64.0282 21.856C64.112 22.6354 64.0333 23.4237 63.7971 24.1712C63.6399 24.5655 63.3987 24.9208 63.0902 25.2124C62.7817 25.5041 62.4135 25.725 62.0109 25.8598C61.5311 25.9884 61.0852 26.1684 60.7089 26.2692L60.7234 26.2855ZM57.7579 15.5947C56.7419 15.867 56.6436 16.6294 56.6527 18.432C56.6514 18.9163 56.6602 19.4383 56.613 19.8644C56.4271 22.294 57.0818 24.7 57.7504 24.9746C58.8727 25.3999 59.8851 25.1891 61.5646 24.608C61.7905 24.5349 61.9973 24.4123 62.1699 24.2492C62.3425 24.0861 62.4766 23.8865 62.5623 23.6651C62.7208 23.0925 62.763 22.4941 62.6866 21.905C62.6101 21.3159 62.4165 20.748 62.1171 20.2349C60.9108 17.7649 58.5319 15.3974 57.7768 15.5897L57.7579 15.5947Z" fill="#303030"/>
<path d="M61.4668 8.55078C53.8539 5.01435 46.2539 7.5852 43.4101 8.90179C40.5664 10.2184 34.164 7.43654 29.5802 7.56563C24.9965 7.69472 18.9692 10.0761 16.6103 16.4761C14.2513 22.876 21.2645 36.4048 21.2645 36.4048L23.739 39.5433C23.739 39.5433 25.4552 39.1742 28.2464 38.5271C28.2116 37.7197 28.1723 36.9336 28.1526 36.1826L27.9362 36.2406C27.8843 35.8209 26.6968 26.0453 30.4094 21.4607C33.1779 18.0568 37.7998 17.8065 41.862 17.5752C43.3088 17.5255 44.7517 17.3948 46.1838 17.1835C56.785 15.3513 64.672 17.7656 69.7545 24.3901C70.1164 24.8346 70.4339 25.3135 70.7023 25.8201C73.1847 24.5095 74.5485 23.2769 74.1645 22.2202C72.0254 16.2692 69.121 12.0156 61.515 8.46726" fill="#161615"/>
<path d="M46.0519 34.1898C34.9031 37.1771 24.4982 39.4407 23.5944 39.6426L23.4156 39.6905L20.7984 36.3583C20.5079 35.8009 13.7574 22.5748 16.1138 16.1654C18.4702 9.75605 24.523 7.20652 29.3546 7.06145C31.5704 7.10805 33.7738 7.40385 35.9235 7.94326C38.7971 8.54465 41.5214 9.11547 43.1042 8.39895C45.3692 7.36853 53.3763 4.28523 61.4419 8.04322C69.2501 11.6685 72.1282 16.0501 74.2428 21.9471C74.3145 22.1584 74.3381 22.383 74.312 22.6046C74.2859 22.8261 74.2107 23.0391 74.0919 23.2279C72.2713 26.519 58.7016 30.8205 46.0758 34.2036L46.0519 34.1898ZM23.6808 39.0245C26.8892 38.316 70.3258 28.7041 73.5601 22.9368C73.6366 22.8225 73.6864 22.6925 73.7058 22.5564C73.7252 22.4203 73.7137 22.2815 73.6721 22.1505C71.6073 16.4014 68.797 12.1227 61.184 8.58625C53.3426 4.94971 45.5443 7.9468 43.3426 8.95017C41.61 9.74718 38.8004 9.15888 35.82 8.53566C33.7169 8.00487 31.5613 7.7099 29.3929 7.65618C24.7621 7.79788 18.9733 10.1658 16.7032 16.3705C14.4774 22.402 21.0018 35.3862 21.3414 36.0514L23.6808 39.0245Z" fill="#303030"/>
<path d="M46.1778 34.66C34.8879 37.6852 24.1487 40.0182 23.7015 40.1179L23.2217 40.2464L20.4185 36.6716C20.072 36.0183 13.2309 22.6048 15.6574 16.0052C18.0838 9.40562 24.3567 6.7366 29.3464 6.57942C31.5971 6.62723 33.8354 6.92718 36.0194 7.47366C38.829 8.06195 41.468 8.61532 42.8795 7.97492C45.1891 6.92248 53.37 3.77246 61.6282 7.6099C69.5864 11.3059 72.5206 15.7834 74.6867 21.7977C74.7805 22.0747 74.8126 22.3689 74.7807 22.6596C74.7489 22.9503 74.6539 23.2306 74.5024 23.4807C72.9316 26.3116 63.4119 30.0724 46.1854 34.6883L46.1778 34.66ZM23.8514 38.4946C41.1366 34.7 70.6519 27.1745 73.1193 22.7219C73.2545 22.4739 73.2174 22.373 73.1953 22.3284C71.1727 16.6992 68.4184 12.5163 60.9624 9.0387C53.3068 5.49355 45.6727 8.42645 43.525 9.40528C41.6469 10.2614 38.7663 9.67197 35.7075 9.01936C33.6512 8.50172 31.5444 8.21075 29.4248 8.15163C24.9427 8.28374 19.3721 10.5629 17.1738 16.5467C14.9756 22.5305 21.5104 35.29 21.789 35.8406L23.8514 38.4946Z" fill="#303030"/>
<path d="M30.3465 54.532C30.3465 54.532 38.8013 72.5751 58.1412 67.1913C77.4812 61.8075 78.2645 42.6402 78.2645 42.6402L56.8553 43.2745L30.3465 54.532Z" fill="#161615"/>
<path d="M57.9464 67.6666C47.983 70.3363 40.9573 66.7333 36.8159 63.2448C34.0541 60.888 31.7726 58.0208 30.0962 54.8002L29.9591 54.5143L56.8221 43.1115L78.5501 42.4624L78.5367 42.7887C78.2304 46.3895 77.2686 49.9039 75.6987 53.1589C74.0242 56.6952 71.5932 59.8203 68.5776 62.3133C65.562 64.8063 62.0355 66.6063 58.2474 67.5859L57.9558 67.6641L57.9464 67.6666ZM30.7857 54.7768C32.4197 57.8152 34.6053 60.5226 37.2307 62.7605C43.1507 67.769 50.1657 69.1867 58.0792 66.9957C61.7931 66.0446 65.2519 64.2869 68.2094 61.8474C71.1669 59.4079 73.5506 56.3468 75.1908 52.8816C76.6731 49.7925 77.6116 46.471 77.9648 43.0629L56.947 43.6528L30.7857 54.7768Z" fill="#303030"/>
<path d="M58.0423 68.0246C47.919 70.7371 40.7834 67.0627 36.5723 63.5022C33.7746 61.1022 31.461 58.1901 29.7558 54.9222L29.4664 54.2939L56.7283 42.7237L56.7942 42.706L78.9732 42.047L78.9427 42.7611C78.6253 46.4132 77.6503 49.9779 76.0648 53.2832C74.3712 56.8795 71.9044 60.0574 68.8406 62.5901C65.7768 65.1228 62.1915 66.9477 58.3408 67.9345L58.0423 68.0246ZM31.2924 54.9743C32.8878 57.8254 34.9734 60.3728 37.4532 62.4997C43.2772 67.413 50.1742 68.8421 57.9767 66.6506C61.6388 65.714 65.05 63.983 67.9683 61.5804C70.8865 59.1778 73.2403 56.1624 74.8626 52.7482C76.2584 49.814 77.1672 46.6722 77.5532 43.446L56.9846 44.0566L31.2924 54.9743Z" fill="#303030"/>
<path d="M20.3337 36.6945C19.7365 37.2882 19.7991 38.7638 20.3659 40.5782C20.9328 42.3927 20.6088 43.7803 20.9599 44.5635C21.3109 45.3467 21.9043 47.3355 22.5575 49.51C23.2108 51.6845 23.981 54.6343 24.6718 55.6694C25.3625 56.7044 25.8796 58.3708 26.4269 58.4561C26.9741 58.5414 31.566 57.3514 34.2263 56.3663C36.8866 55.3812 50.2406 51.7425 52.3034 51.0486C54.3661 50.3547 65.2634 47.4449 67.7882 46.97C70.3129 46.4952 79.0478 45.3749 80.4916 43.425C81.9355 41.4751 81.2143 35.961 80.451 34.1286C79.6878 32.2962 78.8723 27.2207 77.8043 25.5305C76.7363 23.8403 75.5419 21.3772 74.0332 21.5798C71.2024 22.171 68.407 22.92 65.6599 23.8234C63.4184 24.5652 56.2001 26.7917 54.102 27.3539C52.004 27.9161 41.8713 30.6311 40.1921 30.95C38.5129 31.2688 28.9321 34.3503 26.6705 35.0168C24.4088 35.6833 22.9414 35.8143 21.9159 36.0891C20.8904 36.3639 20.9559 36.0438 20.3149 36.6996" fill="#161615"/>
<path d="M76.5514 45.5799C74.4534 46.1421 71.874 46.6013 69.3999 47.0021L67.8286 47.2719C65.226 47.7575 54.3338 50.6861 52.3814 51.3403C51.5498 51.6237 48.9067 52.3722 45.8334 53.2461C41.3916 54.5069 35.8634 56.0789 34.2855 56.663C31.9563 57.5292 27.0535 58.9135 26.3262 58.7957C25.8235 58.6884 25.4813 58.0137 25.0411 57.1233C24.8413 56.6894 24.6141 56.2686 24.3607 55.8637C23.5701 54.2637 22.9662 52.5782 22.5609 50.8402C22.4475 50.4168 22.3365 50.0029 22.2332 49.6171C21.5648 47.3862 20.9822 45.4752 20.6456 44.7082C20.4799 44.2223 20.401 43.711 20.4123 43.1977C20.4006 42.3475 20.2759 41.5027 20.0416 40.6853C19.724 39.4999 19.2088 37.3893 20.0893 36.4979C20.2126 36.3333 20.3703 36.1975 20.5515 36.1002C20.7327 36.0029 20.933 35.9463 21.1383 35.9345C21.3727 35.9156 21.6046 35.8737 21.8308 35.8094C22.2165 35.7061 22.6493 35.5901 23.1681 35.5317C24.3156 35.3365 25.4505 35.0728 26.5665 34.7421L29.9558 33.6928C33.6763 32.5245 38.8963 30.8939 40.1164 30.6678C41.3364 30.4417 46.1328 29.1868 54.0075 27.0768C56.1337 26.507 63.3401 24.2736 65.5559 23.5488C68.3324 22.6304 71.1596 21.8728 74.0233 21.28C75.5038 21.0849 76.6291 22.9514 77.623 24.5909C77.7764 24.8624 77.9367 25.122 78.0945 25.3721C78.8775 27.0522 79.4501 28.8225 79.7992 30.6429C80.0484 31.7862 80.3704 32.9125 80.7632 34.0147C81.5214 35.8283 82.3282 41.5111 80.7735 43.6117C80.1865 44.3942 78.6143 45.0373 76.601 45.5767L76.5514 45.5799ZM58.9412 48.8768C62.4882 47.9264 66.3487 46.9423 67.7595 46.6753L69.3496 46.4004C72.5281 45.8815 79.1323 44.7876 80.283 43.249C81.6392 41.4235 80.9363 36.0154 80.2001 34.2463C79.8002 33.1156 79.4707 31.9612 79.2134 30.7898C78.8723 29.032 78.3257 27.3203 77.5848 25.6902C77.423 25.4377 77.2627 25.1782 77.1039 24.9115C76.2118 23.4262 75.2429 21.7296 74.1044 21.8834C71.2924 22.4694 68.5157 23.2135 65.7875 24.1119C63.5811 24.8342 56.3465 27.0752 54.2108 27.6475C46.3173 29.7625 41.3654 31.039 40.2727 31.2511C39.18 31.4632 33.7222 33.1475 30.178 34.2585L26.7887 35.3078C25.6507 35.6445 24.494 35.914 23.3244 36.1151C22.8352 36.2461 22.3634 36.2919 22.0341 36.3801C21.7757 36.4481 21.5129 36.4983 21.2475 36.5304C20.9841 36.601 20.9125 36.5596 20.571 36.9033C20.0878 37.3957 20.1246 38.7371 20.6669 40.4976C20.9132 41.3622 21.0473 42.2548 21.066 43.1536C21.0557 43.5948 21.1158 44.0348 21.2438 44.4572C21.5974 45.2498 22.1851 47.1797 22.8585 49.4294C22.9644 49.8246 23.0728 50.2291 23.1862 50.6525C23.5865 52.3295 24.162 53.9599 24.903 55.5167C25.1746 55.9428 25.4181 56.3862 25.6318 56.8441C25.8884 57.3501 26.277 58.1232 26.4929 58.1763C29.0989 57.7395 31.6571 57.054 34.1324 56.1293C35.7385 55.5376 41.0409 54.0261 45.7274 52.6998C48.7851 51.8805 51.3496 51.1025 52.2189 50.8091C53.0881 50.5157 55.9595 49.7161 58.9231 48.922" fill="#303030"/>
<path d="M76.6147 45.8151C74.4979 46.3823 71.9185 46.8415 69.435 47.2448L67.9139 47.5515C65.3208 48.0346 54.4473 50.9582 52.495 51.6124C51.6634 51.8958 49.0297 52.6418 45.947 53.5182C41.5052 54.779 35.9864 56.3485 34.4085 56.9326C32.1897 57.7591 27.1558 59.2188 26.3117 59.0417C25.6929 58.915 25.3263 58.1864 24.8289 57.271C24.6306 56.8469 24.4058 56.4356 24.1561 56.0395C23.3509 54.4174 22.737 52.7072 22.3267 50.9433C22.2132 50.52 22.1048 50.1154 21.999 49.7203C21.3331 47.4988 20.7555 45.6065 20.4215 44.849C20.2453 44.3352 20.1618 43.7943 20.1748 43.2513C20.154 42.4216 20.0314 41.5977 19.8099 40.7979C19.3451 39.2889 18.9926 37.296 19.9219 36.3613C20.0655 36.1786 20.2458 36.028 20.451 35.9192C20.6563 35.8104 20.8821 35.7457 21.1139 35.7293C21.3356 35.7139 21.5551 35.6753 21.7688 35.6143C22.1639 35.5084 22.5967 35.3925 23.1249 35.3316C24.263 35.1388 25.3884 34.8776 26.4951 34.5496C27.116 34.3832 28.265 34.0048 29.6235 33.5802L29.9528 33.492C33.7297 32.3086 38.9121 30.688 40.1415 30.4594C41.206 30.2549 46.1391 28.9835 54.0138 26.8734C56.1401 26.3037 63.3464 24.0703 65.5434 23.3505C68.3189 22.4286 71.1463 21.671 74.0108 21.0817C75.6563 20.8626 76.8206 22.7993 77.8416 24.5021C78.0084 24.7734 78.1687 25.033 78.3225 25.2808C79.1189 26.9801 79.7006 28.7719 80.0542 30.6149C80.2874 31.7514 80.588 32.8729 80.9542 33.9737C81.759 35.8857 82.5758 41.6062 80.9352 43.8003C80.374 44.5658 78.97 45.2344 76.6368 45.8596L76.6147 45.8151ZM59.0073 49.2725C62.5542 48.3221 66.3959 47.3432 67.7973 47.0786L69.378 46.8063C71.8427 46.4081 74.4127 45.9514 76.5107 45.3892C78.6087 44.827 80.0579 44.1766 80.5453 43.5115C82.0261 41.5114 81.2276 35.897 80.5083 34.1537C80.1124 33.0387 79.787 31.9 79.5343 30.7442C79.19 28.9497 78.6274 27.204 77.8591 25.5462C77.7039 25.3054 77.541 25.0364 77.3782 24.7675C76.4302 23.1863 75.3558 21.3969 74.0309 21.5704C71.1958 22.1575 68.3969 22.9075 65.6481 23.8165C63.4512 24.5363 56.226 26.7748 54.0903 27.347C46.2062 29.4596 41.2637 30.7335 40.1804 30.9431C39.0971 31.1527 33.8156 32.7797 30.0481 33.9606L29.7846 34.0312L26.6562 35.0005C25.5308 35.3337 24.3866 35.5999 23.2296 35.7977C22.731 35.9313 22.2686 35.9745 21.9111 36.0703C21.6714 36.1335 21.4274 36.1787 21.181 36.2054C21.0078 36.2142 20.8388 36.2617 20.6865 36.3444C20.5341 36.4271 20.4023 36.5429 20.3006 36.6833C19.7222 37.2719 19.7252 38.7131 20.3505 40.6328C20.5899 41.4655 20.7187 42.326 20.7338 43.1923C20.7217 43.6761 20.7929 44.1584 20.9444 44.6181C21.2861 45.4039 21.8687 47.3149 22.5396 49.5552C22.643 49.941 22.7539 50.3549 22.8673 50.7783C23.2701 52.4925 23.8615 54.1569 24.6307 55.741C24.8902 56.1476 25.1245 56.5697 25.3324 57.005C25.7261 57.7969 26.0563 58.4648 26.4429 58.5528C27.0617 58.6794 31.831 57.3611 34.2705 56.4553C35.8672 55.8662 41.3954 54.2942 45.8373 53.0334C48.8917 52.1645 51.5254 51.4185 52.3852 51.1276C53.2451 50.8367 56.0694 50.0497 59.0706 49.2455L59.0073 49.2725ZM76.6002 45.2341C74.5869 45.7736 72.0382 46.2347 69.4205 46.6638L69.3265 46.689L67.8297 46.8985C66.36 47.1713 62.3138 48.2151 59.0303 49.095C55.7468 49.9748 53.1784 50.663 52.3355 50.9796C51.4926 51.2962 48.889 52.0039 45.844 52.8702C41.3927 54.1335 35.8645 55.7055 34.2584 56.2972C31.7509 57.2493 29.1536 57.9453 26.506 58.3745C26.2098 58.3228 25.9495 57.8782 25.4703 56.9176C25.2601 56.4695 25.0224 56.0348 24.7585 55.6159C23.9964 54.0431 23.4084 52.3916 23.0052 50.6909L22.9725 50.5686C22.8716 50.1923 22.7708 49.816 22.6775 49.4679C22.0067 47.2275 21.4215 45.3071 21.0799 44.5213C20.9334 44.0743 20.8625 43.606 20.8699 43.1356C20.8599 42.2557 20.7308 41.3813 20.4859 40.5361C19.9159 38.6721 19.8991 37.2548 20.4663 36.6994C20.8404 36.3269 20.9389 36.2804 21.2927 36.2461C21.5454 36.2174 21.7957 36.1705 22.0416 36.1059C22.4086 36.0076 22.8319 35.8941 23.3319 35.8408C24.4982 35.6399 25.6518 35.3712 26.7868 35.0361L30.0845 34.0214L30.0939 34.0189C33.6475 32.9053 39.0156 31.225 40.2168 31.0039C41.4181 30.7829 46.2521 29.5179 54.1362 27.4054C56.2624 26.8356 63.4688 24.6022 65.7034 23.8723C68.4428 22.9658 71.2323 22.2184 74.0579 21.6337C75.305 21.471 76.3599 23.2252 77.3055 24.797C77.4677 25.0763 77.628 25.3358 77.7864 25.5757C78.5399 27.2219 79.0948 28.9519 79.4395 30.7292C79.6946 31.8945 80.0225 33.0427 80.4211 34.1669C81.1353 35.8915 81.935 41.435 80.4774 43.4087C79.9506 44.1146 78.5051 44.7036 76.5576 45.2254L76.6002 45.2341ZM58.8716 48.6534C62.1645 47.7711 66.2101 46.6871 67.7087 46.4469L69.2048 46.1973L69.2989 46.1721C72.1944 45.6886 78.9592 44.592 80.0849 43.1105C81.3646 41.3761 80.6599 35.9987 79.9659 34.3494C79.5636 33.2092 79.2316 32.0455 78.9716 30.8647C78.6362 29.1292 78.0986 27.4389 77.3701 25.8284L76.8892 25.0498C76.07 23.6861 75.0635 21.9996 74.0924 22.1388C71.2962 22.7206 68.5351 23.4604 65.8226 24.3547C63.6162 25.077 56.3722 27.3205 54.2365 27.8927C46.343 30.0078 41.3817 31.2868 40.2796 31.5014C39.1774 31.7161 33.7291 33.3978 30.2131 34.5012L30.119 34.5264L26.8144 35.5531C25.6701 35.8912 24.5071 36.1624 23.3313 36.3654C22.8421 36.4964 22.3703 36.5422 22.0598 36.6254C21.7892 36.6998 21.5126 36.7503 21.2331 36.7763C21.0073 36.8368 20.9979 36.8393 20.702 37.09C20.4062 37.3407 20.262 38.4583 20.8623 40.4352C21.1166 41.3183 21.2528 42.2313 21.2671 43.1502C21.2626 43.5615 21.318 43.9713 21.4316 44.3666C21.7902 45.178 22.3855 47.1361 23.0539 49.367C23.1497 49.7245 23.2505 50.1009 23.3513 50.4772L23.3841 50.5995C23.7834 52.2495 24.3487 53.8548 25.0713 55.391C25.3486 55.8256 25.5977 56.2775 25.8171 56.744C26.0039 57.1759 26.245 57.5824 26.5344 57.9535C29.0918 57.4722 31.6031 56.7723 34.0408 55.8615C35.6657 55.2647 40.9681 53.7532 45.6452 52.4294C48.7123 51.6076 51.3239 50.817 52.1273 50.5413C52.9307 50.2655 55.6327 49.5112 58.8503 48.6491" fill="#303030"/>
<path d="M52.519 51.9284C52.0507 52.0509 51.5718 52.1286 51.0887 52.1603L50.6188 52.1753L50.7959 51.7447C51.0955 50.7422 51.1839 49.6884 51.0557 48.65C50.5787 45.6525 49.9411 42.6828 49.1458 39.7536L49.0752 39.4902C48.2562 36.1702 45.8694 29.2571 45.8373 29.1749L45.7642 28.9021L48.4808 27.7506L48.564 28.0611C50.1734 32.5496 51.5368 37.1226 52.648 41.7597L52.8698 42.5876C54.0531 48.3208 54.4327 50.9417 53.6145 51.4634C53.2802 51.6685 52.9162 51.8205 52.5353 51.9139L52.519 51.9284ZM51.4958 51.4967C52.1208 51.4441 52.7279 51.2608 53.2776 50.9587C53.892 50.542 52.7538 45.2404 52.2688 42.678L52.047 41.8501C50.9796 37.3429 49.6609 32.899 48.0972 28.5392L46.4573 29.2306C46.9093 30.5414 48.8807 36.3558 49.6184 39.3346L49.6839 39.5792C50.4862 42.5366 51.1312 45.5345 51.6165 48.5602C51.7161 49.5524 51.6435 50.5544 51.4017 51.5219" fill="#303030"/>
<path d="M52.5823 52.1639C52.0952 52.2932 51.5963 52.3728 51.0931 52.4016L50.2361 52.4396L50.5608 51.6569C50.8335 50.6816 50.9032 49.6608 50.7655 48.6576C50.283 45.6711 49.6449 42.7119 48.8538 39.7919L48.7933 39.5661C47.9819 36.2744 45.5875 29.333 45.5605 29.2697L45.4294 28.7805L48.6364 27.427L48.7851 27.9821C50.3964 32.4803 51.7622 37.0626 52.8766 41.7089L53.0985 42.5368C54.3821 48.7574 54.6716 51.0797 53.7463 51.6907C53.3919 51.9146 53.0038 52.0799 52.5968 52.1802L52.5823 52.1639ZM51.021 51.9067L51.1057 51.884C51.5762 51.8574 52.0428 51.783 52.4983 51.6621C52.8539 51.5759 53.1937 51.4338 53.5048 51.2411C54.2571 50.737 53.5637 47.0204 52.648 42.5869L52.4262 41.759C51.3136 37.136 49.9569 32.5751 48.3617 28.0956L48.3466 28.0391L46.0452 29.0087L46.0603 29.0652C46.0779 29.131 48.4767 36.0511 49.3032 39.3993L49.3688 39.6439C50.1673 42.5856 50.8082 45.5678 51.2887 48.5779C51.4307 49.6734 51.3334 50.7866 51.0034 51.8408L51.021 51.9067ZM52.4699 51.5184C52.1554 51.6038 51.835 51.666 51.5114 51.7047L51.1601 51.7484L51.2394 51.4045C51.4575 50.4654 51.5116 49.4957 51.3991 48.5382C50.9165 45.5219 50.2739 42.5335 49.4741 39.5854L49.4237 39.3972C48.6785 36.3903 46.6699 30.4749 46.2701 29.3215L46.2096 29.0957L48.3023 28.2123L48.3703 28.4664C49.9402 32.8311 51.2668 37.2795 52.344 41.7911L52.5684 42.6284C53.7833 48.5548 54.0288 50.7881 53.4727 51.159C53.1757 51.3431 52.8508 51.4778 52.5107 51.5579L52.4699 51.5184ZM51.8716 51.2048C52.3407 51.142 52.7926 50.9866 53.2011 50.7477C53.6341 50.2183 52.4666 44.5817 52.0622 42.7338L51.8378 41.8965C50.7891 37.4686 49.4978 33.1018 47.9698 28.8157L46.7759 29.3272C47.3097 30.8681 49.1622 36.3514 49.8721 39.2267L49.9376 39.4713C50.7449 42.4411 51.3903 45.4526 51.8708 48.4925C51.9715 49.3871 51.9421 50.2917 51.7837 51.1779" fill="#303030"/>
<path d="M76.7354 46.2664C74.6468 46.8261 72.105 47.2752 69.5626 47.6842L68.01 47.9489C65.4288 48.4389 54.593 51.3524 52.65 52.0041C51.7939 52.2335 49.166 53.0385 46.1021 53.9099C41.6696 55.1682 36.1509 56.7377 34.6012 57.3142C32.8847 57.9456 27.3567 59.6688 26.266 59.4367C25.4364 59.2758 24.9874 58.4281 24.5169 57.4248C24.3288 57.0185 24.1154 56.6244 23.878 56.2448C23.0498 54.5897 22.4163 52.8442 21.9901 51.0432L21.6599 49.8107C21.0312 47.6902 20.4334 45.7227 20.1044 44.984C19.9079 44.419 19.81 43.8245 19.8149 43.2263L19.7937 42.8085L19.2724 34.4274L21.8046 42.8243C21.908 43.21 22.0214 43.6334 22.1349 44.0568C22.5245 45.6616 23.0715 47.2241 23.768 48.7215C24.0576 49.1718 24.315 49.6419 24.5382 50.1285C24.695 50.4571 24.8683 50.7775 25.0576 51.0885C27.4805 50.5721 29.8649 49.8894 32.194 49.0452C33.8283 48.446 39.1401 46.9319 43.8428 45.5912C46.8911 44.7744 49.4651 43.9939 50.2992 43.72C52.2704 43.0607 63.2944 40.0968 65.9158 39.6062L67.5153 39.3288C70.1236 38.9022 77.0346 37.7865 78.023 36.4326C78.6745 35.5522 78.8434 33.0969 78.4375 30.4528L80.3519 30.071L80.4628 30.4849C80.6915 31.6057 80.9878 32.7116 81.3502 33.7966C82.1751 35.7839 82.9978 41.7145 81.2746 44.0519C80.5837 44.9731 78.883 45.7011 76.6909 46.2884L76.7354 46.2664ZM58.7303 48.2775C62.3054 47.3196 66.1722 46.2835 67.605 46.0609L69.2045 45.7835C71.8128 45.3569 78.7238 44.2413 79.7147 42.8968C80.5209 41.8035 80.4615 38.8346 80.051 36.6253C79.9242 36.9822 79.746 37.3187 79.5221 37.6242C78.1728 39.4378 72.972 40.3876 67.7655 41.2785L66.213 41.5433C63.6292 42.0238 52.796 44.9468 50.8505 45.5891C50.0094 45.8749 47.3664 46.6234 44.3025 47.4948C39.8726 48.7625 34.3538 50.332 32.8016 50.8992C31.2495 51.4663 25.8087 53.1763 24.5543 53.0485C24.7638 53.7906 25.0539 54.5075 25.4196 55.1864C25.7082 55.6372 25.9656 56.1073 26.1898 56.5934C26.3465 56.922 26.5199 57.2424 26.7092 57.5533C29.1333 57.0418 31.5181 56.359 33.8455 55.5101C35.4799 54.9108 40.7916 53.3968 45.4969 52.0654C48.5452 51.2486 51.1167 50.4587 51.9508 50.1848C52.7849 49.9109 55.6914 49.0918 58.6927 48.2876" fill="#303030"/>
<path d="M49.2708 17.4151L47.8855 18.4921L46.8668 19.7331L46.7195 21.3658L46.5885 22.5706L47.3688 24.9934L48.4049 28.8602L49.1827 29.7308L51.9031 29.6472L55.3747 28.717L57.0631 27.6797L57.7517 26.3356L57.8163 24.2814L56.2736 21.7604L54.8522 19.4287L53.4939 17.8969L52.6928 16.9015L50.8331 16.8856L48.7137 17.4434L49.2708 17.4151Z" fill="#161615"/>
<path d="M48.621 30.0427C48.2275 29.9666 47.9108 29.5372 47.6293 28.6749C46.96 26.666 45.7384 23.0103 46.3521 20.4459C46.5215 19.776 46.8315 19.1499 47.2615 18.609C47.3857 18.4395 47.5211 18.2786 47.6669 18.1273C48.6288 17.1637 50.2887 16.9609 51.7898 16.7301C53.291 16.4993 54.2944 17.7228 55.3406 19.5198C55.5424 19.859 55.7373 20.2101 55.946 20.5373C58.0834 23.9981 58.6583 26.2944 57.7275 27.5623C57.2032 28.2775 55.7038 28.8911 54.048 29.3347C52.2881 29.8579 50.4561 30.0968 48.621 30.0427ZM51.8588 17.1755C50.3388 17.4114 47.7368 18.3506 47.3828 19.7765C47.0332 22.7065 47.3135 25.6774 48.2051 28.4903C48.4093 29.2524 48.6698 29.4347 48.7339 29.4478C49.957 29.6847 56.2048 28.6157 57.2013 27.1789C57.7256 26.4637 57.839 24.7796 55.3886 20.8279L54.8114 19.8027C53.8086 18.0547 53.0437 16.9689 51.8537 17.1567" fill="#FBFBF2"/>
<path d="M54.1409 29.6825C52.33 30.221 50.4441 30.4642 48.5558 30.4026C47.8542 30.2679 47.5101 29.4727 47.2765 28.7891C46.5517 26.5733 45.3691 22.9878 46.0266 20.3613C46.2052 19.6382 46.5362 18.9616 46.9974 18.3768C47.1368 18.1953 47.2852 18.0209 47.4422 17.8543C48.4273 16.8643 50.0652 16.617 51.5005 16.4039L51.7545 16.3358C53.6138 16.0494 54.6672 17.5721 55.6794 19.3176C55.9007 19.6919 56.0881 20.0148 56.2823 20.3258C58.5316 23.9784 59.0935 26.3387 58.0424 27.7598C57.3934 28.6496 55.5778 29.2874 54.1666 29.6655L54.1409 29.6825ZM48.9018 29.0595C50.2892 29.2322 56.1066 28.1373 56.9459 26.9041C57.3248 26.3992 57.591 24.9464 55.133 20.9665C54.9218 20.6298 54.715 20.2718 54.5106 19.9232C53.4984 18.1777 52.8135 17.3528 51.9221 17.4505C50.3526 17.6896 48.0248 18.636 47.7463 19.7795C47.4159 22.6434 47.6917 25.5447 48.5558 28.2951C48.6276 28.5539 48.741 28.7994 48.8917 29.0218L48.9018 29.0595ZM47.0571 19.5406C46.9071 19.8285 46.7925 20.1335 46.7156 20.4489C46.4389 22.396 46.6253 24.3809 47.2596 26.2425C46.7929 24.0613 46.7064 21.8159 47.0038 19.6053L46.9912 19.5583L47.0571 19.5406ZM48.9484 17.6423C48.546 17.7901 48.1783 18.019 47.8681 18.3149L47.7892 18.3966C48.1458 18.1022 48.5347 17.8491 48.9484 17.6423Z" fill="#303030"/>
<path d="M32.9835 32.1961C32.9093 32.5531 32.7364 32.8822 32.4843 33.1459C32.2323 33.4095 31.9113 33.5971 31.5579 33.6872L31.5109 33.6999C30.9934 33.8385 30.1626 33.7485 29.2133 32.6517C28.0485 31.3907 28.3709 29.2069 28.5594 28.3296C28.7478 27.4522 29.2406 26.1303 29.7266 25.9496C29.9697 25.807 30.256 25.757 30.533 25.8087C30.81 25.8605 31.059 26.0106 31.234 26.2314L31.1361 26.7316C30.9863 26.5775 30.7928 26.473 30.5817 26.4322C30.3707 26.3914 30.1522 26.4162 29.9557 26.5033C29.4434 27.2414 29.1314 28.0999 29.0502 28.9947C28.932 29.833 28.8372 31.3609 29.6602 32.2496C30.2859 32.929 30.9287 33.2206 31.411 33.1014C31.6927 33.0041 31.944 32.835 32.1404 32.6108C32.3367 32.3867 32.4713 32.1153 32.5307 31.8233L32.9835 32.1961Z" fill="#FBFBF2"/>
<path d="M31.6615 34.0726C30.9935 34.2516 30.0278 34.1474 28.9089 32.9447C27.6286 31.5533 27.9721 29.2227 28.1762 28.2907C28.2548 27.9067 28.7212 25.9969 29.5565 25.6521C29.8623 25.4836 30.2168 25.4256 30.5603 25.4878C30.9039 25.55 31.2156 25.7286 31.4429 25.9936L31.6012 26.1327L31.3562 27.4387L30.8763 27.0026C30.7841 26.9018 30.6642 26.8307 30.5316 26.798C30.399 26.7653 30.2597 26.7726 30.1313 26.819C29.7358 27.4986 29.4846 28.2524 29.3936 29.0334C29.2745 29.5322 29.2579 30.0499 29.3448 30.5553C29.4317 31.0607 29.6203 31.5431 29.8991 31.9735C30.4262 32.5482 30.9222 32.8187 31.301 32.7273C31.6799 32.6358 31.9755 32.2339 32.1455 31.664L32.2948 31.1299L33.4158 32.0396L33.349 32.2793C33.2701 32.7089 33.0689 33.1066 32.7696 33.4247C32.4703 33.7428 32.0855 33.9678 31.6615 34.0726Z" fill="#303030"/>
<path d="M35.8694 32.5419C35.4743 32.6478 35.0415 32.7637 34.5654 32.8308C34.1929 32.9097 33.8076 32.9064 33.4365 32.8213C33.0654 32.7361 32.7173 32.5711 32.4165 32.3377C31.8825 31.8375 31.4563 31.2335 31.1639 30.5628C30.8715 29.8922 30.7191 29.1689 30.7159 28.4372C30.5645 26.1787 31.1653 21.722 32.8255 21.257C34.7071 20.7528 35.4925 22.2163 36.291 23.6157C36.5174 24.0088 36.7437 24.402 37.0051 24.7756C38.1867 26.4757 39.5069 29.6715 38.5377 30.9093C37.8349 31.7682 36.8548 32.3553 35.7659 32.5696L35.8694 32.5419ZM32.963 21.8454C31.8716 22.1378 31.0779 25.7991 31.2542 28.414C31.2582 29.059 31.3903 29.6969 31.6428 30.2905C31.8953 30.8841 32.2633 31.4216 32.7253 31.8718C32.9491 32.0528 33.2103 32.182 33.4901 32.25C33.7698 32.3181 34.0612 32.3232 34.3432 32.2651C36.1943 31.9103 37.2774 31.5495 38.0661 30.5415C38.7183 29.7013 37.777 26.9788 36.503 25.1219C36.2365 24.7295 35.9957 24.32 35.7669 23.9175C34.9074 22.4033 34.2989 21.4874 32.9818 21.8403L32.963 21.8454Z" fill="#FBFBF2"/>
<path d="M35.9703 32.9183C35.5658 33.0267 35.133 33.1426 34.6381 33.2147C34.2197 33.3001 33.7878 33.2927 33.3726 33.1932C32.9574 33.0936 32.5691 32.9043 32.235 32.6385C31.6587 32.1098 31.1979 31.4678 30.8814 30.7527C30.5648 30.0376 30.3994 29.2648 30.3954 28.4828C30.2459 26.1935 30.8043 21.4659 32.8151 20.917C34.826 20.3681 35.9442 22.0953 36.7251 23.4289C36.9347 23.8194 37.1642 24.1988 37.4128 24.5656C38.4254 26.0489 40.1343 29.6043 38.9315 31.1366C38.187 32.064 37.141 32.7011 35.9754 32.9371L35.9703 32.9183ZM33.0792 21.8647L33.1749 22.2223C32.4223 22.4239 31.5509 25.6825 31.7362 28.4059C31.7319 28.9997 31.8465 29.5884 32.0732 30.1372C32.3 30.6861 32.6342 31.184 33.0563 31.6017C33.2406 31.7518 33.4564 31.8584 33.6877 31.9134C33.919 31.9684 34.1597 31.9705 34.3918 31.9194C36.1488 31.5898 37.1686 31.256 37.8903 30.3366C38.3319 29.7645 37.6985 27.3629 36.3202 25.3424C36.0417 24.9431 35.7984 24.5242 35.5696 24.1217C34.6761 22.5561 34.2099 21.9449 33.1938 22.2172L33.0792 21.8647Z" fill="#303030"/>
<path d="M40.7901 19.1432L38.2072 20.3798L37.5176 24.4669L37.6731 29.0739L38.3184 31.4824L39.885 32.4744L43.248 31.9665L47.468 30.4425L48.394 29.307L47.6176 26.4093L46.7289 23.5819L45.6474 21.6533L43.7931 19.2864L42.3836 19.0691L40.7901 19.1432Z" fill="#161615"/>
<path d="M43.2704 32.2026C41.6146 32.6463 40.0093 32.8647 39.2001 32.5168C37.7626 31.8936 37.1073 29.5987 37.2305 25.5423L37.2435 24.3489C37.251 22.2696 37.2623 20.1289 38.741 19.5511C39.9987 18.9183 41.409 18.6522 42.8108 18.7833C43.1096 18.8417 43.4038 18.9213 43.6913 19.0213C44.3616 19.3554 44.9588 19.8191 45.4485 20.3857C47.2596 22.2903 48.0582 26.3619 48.5017 28.4312C48.7336 29.2968 48.6295 29.849 48.3268 30.1116C46.7627 31.072 45.056 31.7778 43.2704 32.2026ZM38.9607 20.1074C37.867 20.5416 37.8654 22.4176 37.8508 24.3576C37.8482 24.7616 37.8455 25.1657 37.8309 25.5629C37.6941 30.2078 38.6344 31.6096 39.4435 31.9575C41.043 32.6583 46.9883 30.4602 47.9109 29.6886C47.9674 29.6735 48.0473 29.3698 47.8902 28.5951C47.2143 25.3578 45.3269 21.0233 44.1375 20.1219C42.9481 19.2205 40.3648 19.59 38.94 20.1432" fill="#FBFBF2"/>
<path d="M43.3662 32.5599C41.955 32.9381 40.0637 33.2936 39.0568 32.8474C37.4334 32.1329 36.7399 29.8079 36.864 25.5293L36.8795 24.3454C36.8851 22.1457 36.9012 19.8725 38.6076 19.2035C39.9271 18.5531 41.4019 18.2837 42.8662 18.4254C43.1926 18.4805 43.5129 18.5668 43.8227 18.6834C44.5487 19.0269 45.1933 19.5211 45.7135 20.133C47.5536 22.0701 48.3815 26.0633 48.8239 28.2035L48.8642 28.354C49.0483 29.0408 49.1127 29.921 48.5699 30.3791C46.9691 31.3841 45.2144 32.12 43.3756 32.5574L43.3662 32.5599ZM39.1198 20.4377C38.2631 20.7781 38.2559 22.5951 38.2429 24.3532C38.2403 24.7572 38.2376 25.1613 38.223 25.5585C38.0868 30.2436 39.0488 31.3874 39.615 31.6189C40.9527 32.2083 46.5338 30.2692 47.6558 29.4139C47.6722 29.146 47.6478 28.8772 47.5834 28.6166C46.9132 25.4383 45.068 21.2236 43.9621 20.3704C42.8562 19.5172 40.4342 19.9241 39.1198 20.4377ZM44.9742 20.4219C46.0909 22.1091 46.9604 23.9475 47.5563 25.8811C47.1619 23.9792 46.3383 22.1926 45.1482 20.6576L44.9365 20.432L44.9742 20.4219ZM40.5044 19.3205C41.5685 19.0979 42.6718 19.1492 43.7107 19.4697L43.5129 19.3714C43.2549 19.2847 42.9908 19.2172 42.7228 19.1697C41.9815 19.0507 41.2228 19.1022 40.5044 19.3205Z" fill="#303030"/>
<path d="M68.4031 22.6951C63.3096 17.3844 55.8976 15.5387 46.3121 17.2096C44.881 17.4242 43.4389 17.5581 41.9928 17.6107C37.928 17.8327 33.3086 18.0923 30.5401 21.4962C27.7717 24.9001 27.7176 31.6606 27.922 34.6814L28.5242 34.5201C28.3606 31.5388 28.336 25.1624 31.0074 21.8853C33.6788 18.6082 37.8911 18.4476 42.0362 18.2243C43.505 18.1666 44.9697 18.03 46.4238 17.815C55.6631 16.2065 62.8297 17.9265 67.769 22.9255L68.4031 22.6951Z" fill="#303030"/>
<path d="M27.578 35.1667L27.5467 34.7112C27.3154 31.2137 27.3635 24.8077 30.2454 21.2625C33.1273 17.7172 37.8226 17.4776 41.9652 17.2449C43.3986 17.1955 44.8281 17.065 46.2468 16.8539C55.9384 15.1646 63.4433 17.056 68.6586 22.445L69.0412 22.8567L67.6696 23.3452L67.5038 23.1779C62.6486 18.2673 55.5818 16.5811 46.4673 18.1662C45.0003 18.3861 43.522 18.523 42.0395 18.5762C37.9773 18.8075 33.7826 19.034 31.2804 22.1145C28.646 25.3413 28.7322 31.8726 28.8803 34.4951L28.897 34.783L27.578 35.1667Z" fill="#303030"/>
</g>
<g filter="url(#filter1_d_127_7843)">
<path d="M101.608 110.465V60.7911H93.0439C90.8514 66.2038 87.4256 68.6018 79.0668 68.8074V77.0977H90.3718V110.465H101.608ZM135.32 110.465V96.7616H149.777V87.238H135.32V73.6034H124.701V87.238H110.175V96.7616H124.701V110.465H135.32ZM176.48 110.465V60.7911H167.915C165.723 66.2038 162.297 68.6018 153.938 68.8074V77.0977H165.243V110.465H176.48Z" fill="#C7434F"/>
</g>
<g filter="url(#filter2_d_127_7843)">
<path d="M126.649 154.737V145.047H89.9774V154.737H126.649ZM126.649 168.472V158.851H89.9774V168.472H126.649ZM153.89 167.775C149.497 167.775 145.245 165.474 144.478 159.548H133.044C134.369 171.33 143.641 176.28 153.68 176.28C164.208 176.28 173.759 171.051 173.759 160.663C173.759 155.992 170.901 150.694 165.881 148.672C169.436 146.65 172.922 142.467 172.922 137.169C172.922 127.966 163.371 123.992 154.447 123.992C144.269 123.992 134.787 128.454 133.672 139.539H145.035C145.802 134.171 149.567 132.498 153.89 132.498C157.654 132.498 161.349 134.45 161.349 138.145C161.349 142.607 157.375 144.768 150.752 144.768H147.754V154.249H151.101C157.585 154.249 161.977 156.271 161.977 160.733C161.977 165.404 158.909 167.775 153.89 167.775Z" fill="#C7434F"/>
</g>
<path d="M60.9436 217.737H63.414V209.479H66.7605V207.324H57.6115V209.479H60.9436V217.737ZM67.873 207.324V217.737H70.329V214.132H71.8802C74.5804 214.132 76.6055 213.457 76.6055 210.714C76.6055 207.985 74.5804 207.324 71.8802 207.324H67.873ZM71.952 209.393C73.101 209.393 74.0059 209.622 74.0059 210.714C74.0059 211.806 73.101 212.064 71.952 212.064H70.329V209.393H71.952ZM77.6772 217.737H85.6628V215.569H80.1332V213.472H85.3612V211.303H80.1332V209.479H85.6628V207.324H77.6772V217.737ZM89.6548 217.737H92.1252V209.479H95.4717V207.324H86.3227V209.479H89.6548V217.737ZM96.5842 217.737H98.954L103.378 210.987V217.737H105.748V207.324H103.378L98.954 214.075V207.324H96.5842V217.737ZM107.819 217.737H110.189L114.613 210.987V217.737H116.982V207.324H114.613L110.189 214.075V207.324H107.819V217.737ZM113.794 205.012C113.722 205.529 113.277 205.831 112.573 205.831C111.898 205.831 111.553 205.529 111.481 205.012H109.729C109.83 206.204 110.85 206.865 112.587 206.865C114.383 206.865 115.417 206.204 115.532 205.012H113.794ZM128.326 217.737H131.256L127.335 212.193L131.098 207.324H128.255L124.75 212.136H124.736V207.324H122.28V217.737H124.736V212.696H124.75L128.326 217.737ZM133.895 212.538C133.895 210.326 135.159 209.177 136.696 209.177C138.233 209.177 139.497 210.326 139.497 212.538C139.497 214.75 138.233 215.899 136.696 215.899C135.159 215.899 133.895 214.75 133.895 212.538ZM142.096 212.538C142.096 209.292 139.885 207.152 136.696 207.152C133.493 207.152 131.296 209.292 131.296 212.538C131.296 215.784 133.493 217.924 136.696 217.924C139.885 217.924 142.096 215.784 142.096 212.538ZM149.492 217.737H152.422L148.501 212.193L152.264 207.324H149.42L145.915 212.136H145.901V207.324H143.445V217.737H145.901V212.696H145.915L149.492 217.737ZM156.124 217.737H158.594V209.479H161.941V207.324H152.792V209.479H156.124V217.737ZM163.053 217.737H171.039V215.569H165.509V213.472H170.737V211.303H165.509V209.479H171.039V207.324H163.053V217.737ZM172.661 217.737H175.031L179.455 210.987V217.737H181.824V207.324H179.455L175.031 214.075V207.324H172.661V217.737ZM178.636 205.012C178.564 205.529 178.119 205.831 177.415 205.831C176.74 205.831 176.395 205.529 176.324 205.012H174.571C174.672 206.204 175.692 206.865 177.429 206.865C179.225 206.865 180.259 206.204 180.374 205.012H178.636ZM192.496 217.737V207.324H185.185L185.085 210.829C185.013 213.242 184.869 215.569 183.533 215.569H183.217V217.737H183.95C186.578 217.737 187.311 214.85 187.426 211.633L187.512 209.493H190.04V217.737H192.496ZM194.57 217.737H198.433C201.133 217.737 203.159 217.091 203.159 214.276C203.159 211.461 201.133 210.786 198.433 210.786H197.026V207.324H194.57V217.737ZM197.026 215.669V212.854H198.505C199.654 212.854 200.559 213.098 200.559 214.276C200.559 215.425 199.654 215.669 198.505 215.669H197.026ZM58.6254 241.737H66.3804C70.529 241.737 73.2869 240.323 73.2869 236.481C73.2869 234.407 72.179 233.204 70.5762 232.639C71.8962 231.814 72.6033 230.659 72.6033 229.079C72.6033 225.496 69.8219 224.648 66.074 224.648H58.6254V241.737ZM62.6561 234.477H66.4276C68.1483 234.477 69.0204 235.208 69.0204 236.41C69.0204 237.612 68.1483 238.343 66.4276 238.343H62.6561V234.477ZM62.6561 228.042H66.2154C67.6297 228.042 68.4076 228.679 68.4076 229.739C68.4076 230.8 67.6297 231.484 66.2154 231.484H62.6561V228.042ZM95.4302 241.737V224.648H80.8158V241.737H84.8466V228.207H91.3995V241.737H95.4302ZM101.905 233.204C101.905 229.574 103.979 227.689 106.501 227.689C109.023 227.689 111.098 229.574 111.098 233.204C111.098 236.834 109.023 238.72 106.501 238.72C103.979 238.72 101.905 236.834 101.905 233.204ZM115.364 233.204C115.364 227.877 111.734 224.365 106.501 224.365C101.245 224.365 97.6382 227.877 97.6382 233.204C97.6382 238.532 101.245 242.044 106.501 242.044C111.734 242.044 115.364 238.532 115.364 233.204ZM119.712 245.155V241.737H130.461V245.155H134.256V238.178H132.017V224.648H119.547L119.311 230.635C119.123 235.302 118.887 238.178 116.884 238.178H115.917V245.155H119.712ZM121.527 238.178C122.588 236.787 123.059 234.666 123.224 231.719L123.389 228.207H127.986V238.178H121.527ZM134.845 241.737H139.135L140.149 238.697H146.749L147.786 241.737H152.17L145.712 224.648H141.28L134.845 241.737ZM143.472 228.914L145.665 235.42H141.257L143.472 228.914ZM153.741 224.648V241.737H157.771V235.821H160.317C164.748 235.821 168.072 234.713 168.072 230.211C168.072 225.732 164.748 224.648 160.317 224.648H153.741ZM160.435 228.042C162.321 228.042 163.806 228.419 163.806 230.211C163.806 232.002 162.321 232.427 160.435 232.427H157.771V228.042H160.435ZM173.149 233.204C173.149 229.574 175.223 227.689 177.745 227.689C180.268 227.689 182.342 229.574 182.342 233.204C182.342 236.834 180.268 238.72 177.745 238.72C175.223 238.72 173.149 236.834 173.149 233.204ZM186.608 233.204C186.608 227.877 182.978 224.365 177.745 224.365C172.489 224.365 168.883 227.877 168.883 233.204C168.883 238.532 172.489 242.044 177.745 242.044C182.978 242.044 186.608 238.532 186.608 233.204ZM198.745 241.737H203.554L197.119 232.639L203.295 224.648H198.628L192.876 232.544H192.852V224.648H188.822V241.737H192.852V233.464H192.876L198.745 241.737Z" fill="white"/>
<defs>
<filter id="filter0_d_127_7843" x="0.181856" y="0.9899" width="259.636" height="314.929" filterUnits="userSpaceOnUse" color-interpolation-filters="sRGB">
<feFlood flood-opacity="0" result="BackgroundImageFix"/>
<feColorMatrix in="SourceAlpha" type="matrix" values="0 0 0 0 0 0 0 0 0 0 0 0 0 0 0 0 0 0 127 0" result="hardAlpha"/>
<feOffset dy="12.0202"/>
<feGaussianBlur stdDeviation="9.01515"/>
<feColorMatrix type="matrix" values="0 0 0 0 0 0 0 0 0 0 0 0 0 0 0 0 0 0 0.25 0"/>
<feBlend mode="normal" in2="BackgroundImageFix" result="effect1_dropShadow_127_7843"/>
<feBlend mode="normal" in="SourceGraphic" in2="effect1_dropShadow_127_7843" result="shape"/>
</filter>
<filter id="filter1_d_127_7843" x="43.0062" y="24.7304" width="169.534" height="121.795" filterUnits="userSpaceOnUse" color-interpolation-filters="sRGB">
<feFlood flood-opacity="0" result="BackgroundImageFix"/>
<feColorMatrix in="SourceAlpha" type="matrix" values="0 0 0 0 0 0 0 0 0 0 0 0 0 0 0 0 0 0 127 0" result="hardAlpha"/>
<feOffset/>
<feGaussianBlur stdDeviation="18.0303"/>
<feColorMatrix type="matrix" values="0 0 0 0 0.796078 0 0 0 0 0.231373 0 0 0 0 0.282353 0 0 0 0.5 0"/>
<feBlend mode="normal" in2="BackgroundImageFix" result="effect1_dropShadow_127_7843"/>
<feBlend mode="normal" in="SourceGraphic" in2="effect1_dropShadow_127_7843" result="shape"/>
</filter>
<filter id="filter2_d_127_7843" x="53.9168" y="87.9316" width="155.903" height="124.409" filterUnits="userSpaceOnUse" color-interpolation-filters="sRGB">
<feFlood flood-opacity="0" result="BackgroundImageFix"/>
<feColorMatrix in="SourceAlpha" type="matrix" values="0 0 0 0 0 0 0 0 0 0 0 0 0 0 0 0 0 0 127 0" result="hardAlpha"/>
<feOffset/>
<feGaussianBlur stdDeviation="18.0303"/>
<feColorMatrix type="matrix" values="0 0 0 0 0.796078 0 0 0 0 0.231373 0 0 0 0 0.282353 0 0 0 0.5 0"/>
<feBlend mode="normal" in2="BackgroundImageFix" result="effect1_dropShadow_127_7843"/>
<feBlend mode="normal" in="SourceGraphic" in2="effect1_dropShadow_127_7843" result="shape"/>
</filter>
</defs>
</svg>
