<svg width="31" height="30" viewBox="0 0 31 30" fill="none" xmlns="http://www.w3.org/2000/svg">
<circle cx="15.8213" cy="15" r="15" fill="#101010"/>
<path d="M15.8981 6.74278C12.4813 6.74278 9.23667 6.43908 7.99737 9.61717C7.48546 10.9298 7.5598 12.6345 7.5598 15.0754C7.5598 17.2173 7.4911 19.2304 7.99737 20.5327C9.23385 23.7127 12.5048 23.408 15.8962 23.408C19.1681 23.408 22.5416 23.7484 23.796 20.5327C24.3088 19.2069 24.2335 17.5276 24.2335 15.0754C24.2335 11.8202 24.4133 9.71872 22.8333 8.14096C21.2336 6.54251 19.0702 6.74278 15.8943 6.74278H15.8981ZM15.1509 8.24438C22.2781 8.2331 23.1852 7.4414 22.6846 18.4397C22.5068 22.3295 19.5426 21.9027 15.899 21.9027C9.25549 21.9027 9.06447 21.7127 9.06447 15.0716C9.06447 8.35346 9.59143 8.24815 15.1509 8.2425V8.24438ZM20.349 9.62751C19.7967 9.62751 19.3488 10.0751 19.3488 10.627C19.3488 11.1789 19.7967 11.6265 20.349 11.6265C20.9014 11.6265 21.3493 11.1789 21.3493 10.627C21.3493 10.0751 20.9014 9.62751 20.349 9.62751ZM15.8981 10.7963C13.5333 10.7963 11.6165 12.7125 11.6165 15.0754C11.6165 17.4383 13.5333 19.3536 15.8981 19.3536C18.2628 19.3536 20.1787 17.4383 20.1787 15.0754C20.1787 12.7125 18.2628 10.7963 15.8981 10.7963ZM15.8981 12.2979C19.5727 12.2979 19.5774 17.8529 15.8981 17.8529C12.2244 17.8529 12.2187 12.2979 15.8981 12.2979Z" fill="#BD2D43"/>
</svg>
