<svg width="31" height="30" viewBox="0 0 31 30" fill="none" xmlns="http://www.w3.org/2000/svg">
<circle cx="15.2657" cy="15" r="15" fill="#101010"/>
<path fill-rule="evenodd" clip-rule="evenodd" d="M20.7748 9.3541C19.2928 7.86312 17.3219 7.04165 15.2221 7.04077C10.8954 7.04077 7.37407 10.5792 7.37233 14.9282C7.37175 16.3184 7.73317 17.6755 8.42012 18.8717L7.30649 22.9591L11.4678 21.8622C12.6144 22.4907 13.9052 22.822 15.2189 22.8223H15.2222C19.5484 22.8223 23.0702 19.2837 23.0718 14.9345C23.0727 12.8267 22.2569 10.845 20.7748 9.3541ZM15.2221 21.4902H15.2194C14.0487 21.4897 12.9006 21.1736 11.8987 20.5763L11.6606 20.4342L9.1912 21.0852L9.85031 18.6658L9.69513 18.4178C9.04201 17.3739 8.69713 16.1674 8.69771 14.9286C8.69906 11.3139 11.626 8.373 15.2247 8.373C16.9674 8.37358 18.6056 9.05641 19.8373 10.2957C21.0691 11.5349 21.7471 13.1821 21.7465 14.934C21.745 18.549 18.8183 21.4902 15.2221 21.4902V21.4902ZM18.8009 16.5799C18.6048 16.4812 17.6404 16.0046 17.4606 15.9387C17.281 15.8729 17.15 15.8402 17.0194 16.0374C16.8886 16.2346 16.5128 16.6787 16.3983 16.8101C16.2838 16.9417 16.1695 16.9582 15.9734 16.8595C15.7772 16.7608 15.1452 16.5526 14.396 15.8812C13.813 15.3586 13.4194 14.7131 13.3049 14.5159C13.1906 14.3185 13.3039 14.2221 13.391 14.1137C13.6033 13.8487 13.8159 13.571 13.8813 13.4395C13.9467 13.3079 13.9139 13.1928 13.8648 13.0942C13.8159 12.9956 13.4236 12.0255 13.2602 11.6307C13.1009 11.2465 12.9393 11.2984 12.8189 11.2924C12.7046 11.2867 12.5738 11.2855 12.443 11.2855C12.3122 11.2855 12.0997 11.3348 11.9199 11.5322C11.7401 11.7295 11.2335 12.2063 11.2335 13.1764C11.2335 14.1465 11.9363 15.0837 12.0344 15.2153C12.1324 15.3468 13.4175 17.3376 15.3849 18.1912C15.8529 18.3945 16.2182 18.5156 16.5031 18.6065C16.973 18.7565 17.4005 18.7353 17.7385 18.6846C18.1154 18.6279 18.8988 18.2077 19.0624 17.7474C19.2258 17.287 19.2258 16.8924 19.1767 16.8101C19.1278 16.7279 18.9969 16.6787 18.8009 16.5799V16.5799Z" fill="white"/>
<path fill-rule="evenodd" clip-rule="evenodd" d="M20.7748 9.3541C19.2928 7.86312 17.3219 7.04165 15.2221 7.04077C10.8954 7.04077 7.37407 10.5792 7.37233 14.9282C7.37175 16.3184 7.73317 17.6755 8.42012 18.8717L7.30649 22.9591L11.4678 21.8622C12.6144 22.4907 13.9052 22.822 15.2189 22.8223H15.2222C19.5484 22.8223 23.0702 19.2837 23.0718 14.9345C23.0727 12.8267 22.2569 10.845 20.7748 9.3541ZM15.2221 21.4902H15.2194C14.0487 21.4897 12.9006 21.1736 11.8987 20.5763L11.6606 20.4342L9.1912 21.0852L9.85031 18.6658L9.69513 18.4178C9.04201 17.3739 8.69713 16.1674 8.69771 14.9286C8.69906 11.3139 11.626 8.373 15.2247 8.373C16.9674 8.37358 18.6056 9.05641 19.8373 10.2957C21.0691 11.5349 21.7471 13.1821 21.7465 14.934C21.745 18.549 18.8183 21.4902 15.2221 21.4902V21.4902ZM18.8009 16.5799C18.6048 16.4812 17.6404 16.0046 17.4606 15.9387C17.281 15.8729 17.15 15.8402 17.0194 16.0374C16.8886 16.2346 16.5128 16.6787 16.3983 16.8101C16.2838 16.9417 16.1695 16.9582 15.9734 16.8595C15.7772 16.7608 15.1452 16.5526 14.396 15.8812C13.813 15.3586 13.4194 14.7131 13.3049 14.5159C13.1906 14.3185 13.3039 14.2221 13.391 14.1137C13.6033 13.8487 13.8159 13.571 13.8813 13.4395C13.9467 13.3079 13.9139 13.1928 13.8648 13.0942C13.8159 12.9956 13.4236 12.0255 13.2602 11.6307C13.1009 11.2465 12.9393 11.2984 12.8189 11.2924C12.7046 11.2867 12.5738 11.2855 12.443 11.2855C12.3122 11.2855 12.0997 11.3348 11.9199 11.5322C11.7401 11.7295 11.2335 12.2063 11.2335 13.1764C11.2335 14.1465 11.9363 15.0837 12.0344 15.2153C12.1324 15.3468 13.4175 17.3376 15.3849 18.1912C15.8529 18.3945 16.2182 18.5156 16.5031 18.6065C16.973 18.7565 17.4005 18.7353 17.7385 18.6846C18.1154 18.6279 18.8988 18.2077 19.0624 17.7474C19.2258 17.287 19.2258 16.8924 19.1767 16.8101C19.1278 16.7279 18.9969 16.6787 18.8009 16.5799V16.5799Z" fill="#BD2D43"/>
</svg>
